<?xml version="1.0" encoding="utf-8"?>
<!-- Generator: Adobe Illustrator 27.4.0, SVG Export Plug-In . SVG Version: 6.00 Build 0)  -->
<svg version="1.1" id="Layer_1" xmlns="http://www.w3.org/2000/svg" xmlns:xlink="http://www.w3.org/1999/xlink" x="0px" y="0px"
	 viewBox="0 0 512.4 838.3" style="enable-background:new 0 0 512.4 838.3;" xml:space="preserve">
<style type="text/css">
	.st0{opacity:0.55;}
	.st1{fill-rule:evenodd;clip-rule:evenodd;fill:#2C2C2C;}
</style>
<g class="st0">
	<path class="st1" d="M434,386.6c-0.3,1.5-0.3,1.9,0.2,2.6c0.5,0.8,0.8,1.1,1.7,1.5c0.8,0.4,6.6,1.8,8.1,2.1
		c0.5,0.1,1.8,0.3,2.8,0.6c1.7,0.4,1.9,0.4,2.5,0.3c0.6-0.1,0.7-0.2,1.1-0.7c0.5-0.5,0.5-0.6,1.1-2.4c0.6-2,1.3-4.4,2.1-8.2
		c0.3-1.5,1.7-6.8,3.2-12.4c2.2-8.2,2.7-10.1,2.8-11.2c0.2-1.7,0.2-2.2-0.4-2.7c-1-0.9-1-0.9-7-2.5c-4.6-1.2-5.6-1.5-6.3-1.5
		c-1.3-0.1-1.5,0-2,0.6c-0.7,0.7-1.2,1.9-2.2,5.2C440.9,360.8,434.3,385,434,386.6z M440.6,381.2c2.2,0.6,5.7,1.5,7.8,2.1l3.8,1
		l-0.1,0.5c-0.1,0.9-2,7.2-2.2,7.5c-0.5,0.5-0.7,0.5-3.3,0c-3.4-0.7-10.4-2.5-10.9-2.8c-0.5-0.3-0.9-0.8-0.9-1.4
		c0-0.6,0.4-2.7,1.2-5.5l0.7-2.5L440.6,381.2z M437.7,377.6c0.7,0.9,1.4,2,1.4,2.1c0,0.1-0.5,0-1.4-0.4l-0.7-0.2l0.2-0.9l0.2-0.9
		L437.7,377.6z M439.2,375.3c0.4,0.8,1.3,2.2,2,3.3c0.6,1,1.2,1.9,1.2,2c0,0-0.2,0-0.5,0c-0.5-0.1-0.6-0.2-1.2-1.1
		c-0.4-0.5-1.1-1.6-1.6-2.4c-0.5-0.8-1-1.4-1-1.3c0,0.1,1.3,2.4,2.2,3.7c0.3,0.5,0.6,0.8,0.5,0.8s-0.3-0.1-0.6-0.2
		c-0.6-0.2-0.6-0.3-1.6-1.6l-1-1.4l0.4-1.5l0.4-1.5L439.2,375.3z M440.1,374.8c1.1,2,2.3,3.8,3.6,5.8c0.3,0.4,0.4,0.7,0.3,0.6
		c-0.1-0.1-0.4-0.2-0.7-0.2l-0.5-0.1l-1.6-2.5c-0.9-1.4-1.8-3-2.2-3.5c-0.6-1-0.6-1-0.4-1.6l0.1-0.5L440.1,374.8z M441.8,375.1
		c1.4,2.4,2.8,4.8,3.2,5.4l0.7,1.1l-0.6-0.1c-0.4-0.1-0.7-0.2-0.8-0.3c-0.4-0.4-2.5-3.9-4-6.4l-1.5-2.5l0.2-0.7l0.2-0.7L441.8,375.1
		z M442.3,373.9c1.4,2.5,3.1,5.3,3.7,6.3l1.1,1.7l-0.5-0.1l-0.5-0.1l-1.2-1.9c-0.6-1-2.1-3.5-3.3-5.6l-2.1-3.7l0.2-0.6l0.2-0.6
		L442.3,373.9z M444.2,375c2.9,4.9,4,7.1,3.9,7.1c-0.1,0-0.3,0-0.4,0c-0.4-0.1-1.6-2.1-5.3-8.5l-2.6-4.6l0.1-0.5l0.1-0.5L444.2,375z
		 M442.6,370.4c1.2,2.1,3.2,5.6,4.6,7.9l2.5,4.2l-0.5-0.2l-0.5-0.2l-4.2-7.3l-4.2-7.3l0.1-0.5l0.1-0.5L442.6,370.4z M442.9,368.7
		c1.1,1.9,2.6,4.6,3.3,5.9c0.7,1.4,2.1,3.8,3,5.4l1.7,2.9l-0.5-0.1l-0.5-0.1l-2.2-3.7c-1.2-2-3.3-5.7-4.7-8.1l-2.6-4.5l0.2-0.6
		l0.2-0.6L442.9,368.7z M441.5,364.2c0.4,0.2,0.3,0,3,5c2.7,5,4.1,7.6,6.1,11c1,1.7,1.8,3.1,1.7,3.1c0,0-0.3,0-0.5-0.2
		c-0.5-0.2-0.5-0.2-2.5-3.6c-1.1-1.9-2.5-4.4-3.2-5.6c-0.6-1.2-2.1-3.7-3.2-5.5l-2-3.4l0.1-0.5l0.1-0.5L441.5,364.2z M443,357.9
		c0.9-2.8,1.6-4.7,2-5c0.1-0.1,1.2,0,2.3,0.2c1.5,0.3,11.1,2.9,11.4,3.1c0.4,0.3,0.5,0.7,0.3,2c-0.1,1.1-0.2,1.6-1.1,5.1
		c-0.6,2.1-1.1,3.9-1.1,3.9c-0.2,0.1-7-1.7-8.9-2.3c-1.1-0.4-3-1-4.2-1.3l-2.2-0.7l0.4-1.4C442,360.9,442.5,359.2,443,357.9z
		 M443.6,364.8c0.5,0.2,0.5,0.3,1,1.2c0.3,0.5,1.1,2.2,1.9,3.6c0.8,1.4,1.9,3.7,2.6,5s1.8,3.5,2.5,4.8l1.3,2.4l-0.2,0.6l-0.2,0.6
		l-2.9-5c-1.6-2.8-3.3-5.9-3.9-7c-0.6-1.1-1.6-3-2.3-4.3l-1.2-2.3l0.4,0.1C442.9,364.6,443.3,364.7,443.6,364.8z M446,366.1
		c0.2,0.3,0.8,1.4,1.3,2.4c1.1,2,3.1,5.9,3.8,7.4c1.3,2.7,1.7,3.5,1.9,3.8c0.2,0.3,0.2,0.4,0,1l-0.2,0.6l-1.6-3.1
		c-2.8-5.4-4.8-9.1-5.9-11.1l-1-2l0.7,0.2l0.7,0.2L446,366.1z M447.8,366.6c0.2,0.5,2.2,4.5,3.2,6.5c0.2,0.5,0.6,1.3,0.8,1.8
		c0.2,0.5,0.6,1.2,0.8,1.6c0.2,0.4,0.5,1,0.7,1.5c0.3,0.7,0.3,0.9,0.2,1.3l-0.1,0.5l-0.2-0.2c-0.1-0.1-0.7-1.4-1.4-2.7
		c-1.4-2.8-3.2-6.5-4.8-9.2l-1-1.9l0.8,0.2l0.8,0.2L447.8,366.6z M448.6,366.4l0.7,0.2l0.8,1.9c0.7,1.7,1.5,3.5,3.5,7.6
		c0.5,1.1,0.5,1.1,0.4,1.7l-0.2,0.6l-0.2-0.4c-0.1-0.2-0.4-0.9-0.7-1.4c-0.3-0.5-0.7-1.4-0.9-1.8c-0.2-0.5-0.7-1.6-1.2-2.5
		c-1.6-3.3-2.9-5.8-2.8-5.9C448,366.2,448.3,366.3,448.6,366.4z M450.2,366.8l0.5,0.1l0.8,1.6c0.9,1.9,1.6,3.5,2.4,5.5
		c0.5,1.4,0.6,1.4,0.4,2c-0.1,0.7-0.1,0.7-0.5-0.2c-0.1-0.3-0.7-1.6-1.3-2.8s-1.3-2.8-1.6-3.4c-0.5-1.3-1.2-3-1.2-3
		C449.6,366.6,449.9,366.7,450.2,366.8z M452.2,367.2l1.2,0.3l0.5,1c0.2,0.6,0.7,1.6,0.9,2.3c0.5,1.2,0.5,1.3,0.3,1.8l-0.2,0.5
		l-0.6-1.5c-0.3-0.8-0.8-1.9-0.9-2.3c-0.5-1.1-0.9-2-1-2c0,0,0.2,0.6,0.5,1.3c0.3,0.7,0.9,2.1,1.3,3.1l0.8,1.9l-0.2,0.7
		c-0.2,0.7-0.2,0.7-0.3,0.4c-0.2-0.6-1.7-4.1-2.3-5.3c-0.7-1.5-1.1-2.5-1.1-2.5C451,366.9,451.5,367,452.2,367.2L452.2,367.2z
		 M454.3,367.8l0.5,0.1l0.3,1c0.2,0.5,0.4,1.1,0.5,1.2c0.1,0.2,0.1,0.4,0,0.9l-0.2,0.6l-0.5-1.2c-0.3-0.6-0.6-1.5-0.9-2
		s-0.4-0.8-0.4-0.9C453.8,367.7,454,367.7,454.3,367.8z M456.1,368.2c0.4,0.1,0.4,0.1,0.2,0.4c-0.1,0.2-0.2,0.6-0.3,0.9
		c-0.1,0.4-0.2,0.5-0.2,0.5c0-0.1-0.2-0.5-0.4-1l-0.3-0.9l0.3,0C455.5,368.1,455.9,368.1,456.1,368.2z"/>
	<path class="st1" d="M448.4,390.8c0,0.1,0.1,0.2,0.2,0.3c0.1,0.1,0.4,0.4,0.6,0.6c0.3,0.3,0.4,0.4,0.5,0.3c0-0.1-0.8-1.4-1-1.5
		C448.5,390.5,448.4,390.6,448.4,390.8z"/>
	<path class="st1" d="M449.2,389.5c0.1,0.1,0.2,0.3,0.4,0.5c0.1,0.2,0.3,0.3,0.3,0.2c0-0.1-0.5-1-0.6-1
		C449.1,389.1,449,389.4,449.2,389.5z"/>
	<path class="st1" d="M450,388.1c0.2,0.3,0.5,0.6,0.5,0.5c0.1-0.1-0.5-1.3-0.6-1.4C449.6,387.2,449.6,387.5,450,388.1z"/>
	<path class="st1" d="M450.4,386.3c0.1,0.2,0.3,0.4,0.4,0.3c0.1-0.1-0.3-0.8-0.5-0.9C450.1,385.7,450.1,385.9,450.4,386.3z"/>
	<path class="st1" d="M445.2,355.9c0.2,0.1,0.4,0,0.3,0c0-0.1-0.2-0.2-0.3-0.2c-0.2,0-0.3,0-0.3,0
		C444.9,355.8,445,355.9,445.2,355.9z"/>
	<path class="st1" d="M445.8,354.4c0.1,0.1,1.1,0.4,2.3,0.7c1.3,0.4,2.1,0.5,1.9,0.4c-0.2-0.2-4.2-1.3-4.3-1.2
		C445.6,354.2,445.7,354.3,445.8,354.4z"/>
	<path class="st1" d="M455.2,365.5c0.1,0.2,0.9,1.1,0.9,1c0.1-0.1-0.6-1.1-0.8-1.2C455.2,365.3,455.1,365.3,455.2,365.5z"/>
	<path class="st1" d="M456.5,362.6c0.4,0.7,0.7,1,1,1c0.1,0,0-0.1-0.2-0.5c-0.2-0.3-0.5-0.7-0.7-1c-0.2-0.4-0.2-0.5-0.3-0.3
		C456.2,362,456.3,362.3,456.5,362.6z"/>
	<path class="st1" d="M457,360.5c0.2,0.3,0.4,0.6,0.5,0.7c0.2,0.2,0.5,0.2,0.3-0.1c-0.3-0.3-0.7-1-0.7-1.2c0-0.2-0.1-0.2-0.1-0.2
		C456.7,359.7,456.8,360,457,360.5z"/>
	<path class="st1" d="M456.2,364.7c0.3,0.4,0.5,0.5,0.5,0.4c0-0.2-0.6-1.1-0.8-1.2C455.7,363.9,455.8,364.1,456.2,364.7z"/>
	<path class="st1" d="M457.8,358.6c0.1,0.2,0.3,0.4,0.3,0.3c0.1-0.1-0.2-0.9-0.4-1C457.5,358,457.5,358.3,457.8,358.6z"/>
</g>
<g class="st0">
	<path class="st1" d="M58.5,501.8c-0.3,1.5-0.3,1.9,0.2,2.6c0.5,0.8,0.8,1.1,1.7,1.5c0.8,0.4,6.6,1.8,8.1,2.1
		c0.5,0.1,1.8,0.3,2.8,0.6c1.7,0.4,1.9,0.4,2.5,0.3c0.6-0.1,0.7-0.2,1.1-0.7c0.5-0.5,0.5-0.6,1.1-2.4c0.6-2,1.3-4.4,2.1-8.2
		c0.3-1.5,1.7-6.8,3.2-12.4c2.2-8.2,2.7-10.1,2.8-11.2c0.2-1.7,0.2-2.2-0.4-2.7c-1-0.9-1-0.9-7-2.5c-4.6-1.2-5.6-1.5-6.3-1.5
		c-1.3-0.1-1.5,0-2,0.6c-0.7,0.7-1.2,1.9-2.2,5.2C65.4,476.1,58.8,500.3,58.5,501.8z M65,496.5c2.2,0.6,5.7,1.5,7.8,2.1l3.8,1
		l-0.1,0.5c-0.1,0.9-2,7.2-2.2,7.5c-0.5,0.5-0.7,0.5-3.3,0c-3.4-0.7-10.4-2.5-10.9-2.8c-0.5-0.3-0.9-0.8-0.9-1.4
		c0-0.6,0.4-2.7,1.2-5.5l0.7-2.5L65,496.5z M62.2,492.9c0.7,0.9,1.4,2,1.4,2.1c0,0.1-0.5,0-1.4-0.4l-0.7-0.2l0.2-0.9l0.2-0.9
		L62.2,492.9z M63.7,490.6c0.4,0.8,1.3,2.2,2,3.3c0.6,1,1.2,1.9,1.2,2c0,0-0.2,0-0.5,0c-0.5-0.1-0.6-0.2-1.2-1.1
		c-0.4-0.5-1.1-1.6-1.6-2.4c-0.5-0.8-1-1.4-1-1.3c0,0.1,1.3,2.4,2.2,3.7c0.3,0.5,0.6,0.8,0.5,0.8s-0.3-0.1-0.6-0.2
		C64,495,64,495,63,493.6l-1-1.4l0.4-1.5l0.4-1.5L63.7,490.6z M64.5,490c1.1,2,2.3,3.8,3.6,5.8c0.3,0.4,0.4,0.7,0.3,0.6
		c-0.1-0.1-0.4-0.2-0.7-0.2l-0.5-0.1l-1.6-2.5c-0.9-1.4-1.8-3-2.2-3.5c-0.6-1-0.6-1-0.4-1.6l0.1-0.5L64.5,490z M66.3,490.4
		c1.4,2.4,2.8,4.8,3.2,5.4l0.7,1.1l-0.6-0.1c-0.4-0.1-0.7-0.2-0.8-0.3c-0.4-0.4-2.5-3.9-4-6.4l-1.5-2.5l0.2-0.7l0.2-0.7L66.3,490.4z
		 M66.8,489.2c1.4,2.5,3.1,5.3,3.7,6.3l1.1,1.7l-0.5-0.1l-0.5-0.1l-1.2-1.9c-0.6-1-2.1-3.5-3.3-5.6l-2.1-3.7l0.2-0.6l0.2-0.6
		L66.8,489.2z M68.6,490.3c2.9,4.9,4,7.1,3.9,7.1c-0.1,0-0.3,0-0.4,0c-0.4-0.1-1.6-2.1-5.3-8.5l-2.6-4.6l0.1-0.5l0.1-0.5L68.6,490.3
		z M67,485.7c1.2,2.1,3.2,5.6,4.6,7.9l2.5,4.2l-0.5-0.2l-0.5-0.2l-4.2-7.3l-4.2-7.3l0.1-0.5l0.1-0.5L67,485.7z M67.3,483.9
		c1.1,1.9,2.6,4.6,3.3,5.9c0.7,1.4,2.1,3.8,3,5.4l1.7,2.9l-0.5-0.1l-0.5-0.1l-2.2-3.7c-1.2-2-3.3-5.7-4.7-8.1l-2.6-4.5l0.2-0.6
		l0.2-0.6L67.3,483.9z M66,479.5c0.4,0.2,0.3,0,3,5c2.7,5,4.1,7.6,6.1,11c1,1.7,1.8,3.1,1.7,3.1c0,0-0.3,0-0.5-0.2
		c-0.5-0.2-0.5-0.2-2.5-3.6c-1.1-1.9-2.5-4.4-3.2-5.6c-0.6-1.2-2.1-3.7-3.2-5.5l-2-3.4l0.1-0.5l0.1-0.5L66,479.5z M67.4,473.2
		c0.9-2.8,1.6-4.7,2-5c0.1-0.1,1.2,0,2.3,0.2c1.5,0.3,11.1,2.9,11.4,3.1c0.4,0.3,0.5,0.7,0.3,2c-0.1,1.1-0.2,1.6-1.1,5.1
		c-0.6,2.1-1.1,3.9-1.1,3.9c-0.2,0.1-7-1.7-8.9-2.3c-1.1-0.4-3-1-4.2-1.3l-2.2-0.7l0.4-1.4C66.5,476.1,67,474.5,67.4,473.2z
		 M68,480.1c0.5,0.2,0.5,0.3,1,1.2c0.3,0.5,1.1,2.2,1.9,3.6c0.8,1.4,1.9,3.7,2.6,5s1.8,3.5,2.5,4.8l1.3,2.4l-0.2,0.6l-0.2,0.6
		l-2.9-5c-1.6-2.8-3.3-5.9-3.9-7c-0.6-1.1-1.6-3-2.3-4.3l-1.2-2.3l0.4,0.1C67.3,479.9,67.7,480,68,480.1z M70.5,481.3
		c0.2,0.3,0.8,1.4,1.3,2.4c1.1,2,3.1,5.9,3.8,7.4c1.3,2.7,1.7,3.5,1.9,3.8c0.2,0.3,0.2,0.4,0,1l-0.2,0.6l-1.6-3.1
		c-2.8-5.4-4.8-9.1-5.9-11.1l-1-2l0.7,0.2l0.7,0.2L70.5,481.3z M72.3,481.8c0.2,0.5,2.2,4.5,3.2,6.5c0.2,0.5,0.6,1.3,0.8,1.8
		c0.2,0.5,0.6,1.2,0.8,1.6c0.2,0.4,0.5,1,0.7,1.5c0.3,0.7,0.3,0.9,0.2,1.3l-0.1,0.5l-0.2-0.2c-0.1-0.1-0.7-1.4-1.4-2.7
		c-1.4-2.8-3.2-6.5-4.8-9.2l-1-1.9l0.8,0.2l0.8,0.2L72.3,481.8z M73.1,481.6l0.7,0.2l0.8,1.9c0.7,1.7,1.5,3.5,3.5,7.6
		c0.5,1.1,0.5,1.1,0.4,1.7l-0.2,0.6l-0.2-0.4c-0.1-0.2-0.4-0.9-0.7-1.4c-0.3-0.5-0.7-1.4-0.9-1.8c-0.2-0.5-0.7-1.6-1.2-2.5
		c-1.6-3.3-2.9-5.8-2.8-5.9C72.4,481.5,72.7,481.5,73.1,481.6z M74.6,482.1l0.5,0.1l0.8,1.6c0.9,1.9,1.6,3.5,2.4,5.5
		c0.5,1.4,0.6,1.4,0.4,2c-0.1,0.7-0.1,0.7-0.5-0.2c-0.1-0.3-0.7-1.6-1.3-2.8s-1.3-2.8-1.6-3.4c-0.5-1.3-1.2-3-1.2-3
		C74.1,481.9,74.3,482,74.6,482.1z M76.6,482.5l1.2,0.3l0.5,1c0.2,0.6,0.7,1.6,0.9,2.3c0.5,1.2,0.5,1.3,0.3,1.8l-0.2,0.5l-0.6-1.5
		c-0.3-0.8-0.8-1.9-0.9-2.3c-0.5-1.1-0.9-2-1-2c0,0,0.2,0.6,0.5,1.3c0.3,0.7,0.9,2.1,1.3,3.1l0.8,1.9l-0.2,0.7
		c-0.2,0.7-0.2,0.7-0.3,0.4c-0.2-0.6-1.7-4.1-2.3-5.3c-0.7-1.5-1.1-2.5-1.1-2.5C75.4,482.2,76,482.3,76.6,482.5L76.6,482.5z
		 M78.7,483.1l0.5,0.1l0.3,1c0.2,0.5,0.4,1.1,0.5,1.2c0.1,0.2,0.1,0.4,0,0.9l-0.2,0.6l-0.5-1.2c-0.3-0.6-0.6-1.5-0.9-2
		s-0.4-0.8-0.4-0.9C78.2,483,78.4,483,78.7,483.1z M80.5,483.5c0.4,0.1,0.4,0.1,0.2,0.4c-0.1,0.2-0.2,0.6-0.3,0.9
		c-0.1,0.4-0.2,0.5-0.2,0.5c0-0.1-0.2-0.5-0.4-1l-0.3-0.9l0.3,0C80,483.4,80.3,483.4,80.5,483.5z"/>
	<path class="st1" d="M72.9,506c0,0.1,0.1,0.2,0.2,0.3c0.1,0.1,0.4,0.4,0.6,0.6c0.3,0.3,0.4,0.4,0.5,0.3c0-0.1-0.8-1.4-1-1.5
		C72.9,505.8,72.8,505.9,72.9,506z"/>
	<path class="st1" d="M73.6,504.8c0.1,0.1,0.2,0.3,0.4,0.5c0.1,0.2,0.3,0.3,0.3,0.2c0-0.1-0.5-1-0.6-1
		C73.5,504.4,73.5,504.6,73.6,504.8z"/>
	<path class="st1" d="M74.4,503.4c0.2,0.3,0.5,0.6,0.5,0.5c0.1-0.1-0.5-1.3-0.6-1.4C74,502.5,74,502.8,74.4,503.4z"/>
	<path class="st1" d="M74.8,501.6c0.1,0.2,0.3,0.4,0.4,0.3c0.1-0.1-0.3-0.8-0.5-0.9C74.5,501,74.5,501.2,74.8,501.6z"/>
	<path class="st1" d="M69.7,471.2c0.2,0.1,0.4,0,0.3,0c0-0.1-0.2-0.2-0.3-0.2c-0.2,0-0.3,0-0.3,0C69.3,471.1,69.4,471.2,69.7,471.2z
		"/>
	<path class="st1" d="M70.2,469.6c0.1,0.1,1.1,0.4,2.3,0.7c1.3,0.4,2.1,0.5,1.9,0.4c-0.2-0.2-4.2-1.3-4.3-1.2
		C70.1,469.5,70.1,469.6,70.2,469.6z"/>
	<path class="st1" d="M79.7,480.7c0.1,0.2,0.9,1.1,0.9,1c0.1-0.1-0.6-1.1-0.8-1.2C79.6,480.6,79.6,480.6,79.7,480.7z"/>
	<path class="st1" d="M80.9,477.9c0.4,0.7,0.7,1,1,1c0.1,0,0-0.1-0.2-0.5c-0.2-0.3-0.5-0.7-0.7-1c-0.2-0.4-0.2-0.5-0.3-0.3
		C80.6,477.3,80.7,477.6,80.9,477.9z"/>
	<path class="st1" d="M81.5,475.8c0.2,0.3,0.4,0.6,0.5,0.7c0.2,0.2,0.5,0.2,0.3-0.1c-0.3-0.3-0.7-1-0.7-1.2c0-0.2-0.1-0.2-0.1-0.2
		C81.1,475,81.2,475.3,81.5,475.8z"/>
	<path class="st1" d="M80.6,479.9c0.3,0.4,0.5,0.5,0.5,0.4c0-0.2-0.6-1.1-0.8-1.2C80.1,479.1,80.2,479.4,80.6,479.9z"/>
	<path class="st1" d="M82.2,473.9c0.1,0.2,0.3,0.4,0.3,0.3c0.1-0.1-0.2-0.9-0.4-1C82,473.2,82,473.6,82.2,473.9z"/>
</g>
<g class="st0">
	<path class="st1" d="M104.8,101.2c-0.2,1.1-0.2,1.4,0.2,2c0.4,0.6,0.6,0.8,1.3,1.1c0.6,0.3,5,1.4,6.1,1.6c0.4,0.1,1.4,0.3,2.1,0.4
		c1.3,0.3,1.4,0.3,1.9,0.2c0.4-0.1,0.5-0.1,0.9-0.5c0.4-0.4,0.4-0.5,0.8-1.8c0.5-1.5,1-3.3,1.6-6.2c0.2-1.1,1.3-5.1,2.4-9.4
		c1.7-6.2,2-7.6,2.1-8.4c0.2-1.3,0.1-1.7-0.3-2.1c-0.8-0.7-0.8-0.7-5.3-1.9c-3.5-0.9-4.2-1.1-4.7-1.1c-1,0-1.1,0-1.5,0.5
		c-0.5,0.6-0.9,1.5-1.7,3.9C110,81.8,105,100.1,104.8,101.2z M109.7,97.2c1.6,0.4,4.3,1.1,5.8,1.6l2.9,0.8l0,0.4
		c-0.1,0.6-1.5,5.5-1.7,5.7c-0.4,0.4-0.5,0.4-2.5,0c-2.6-0.5-7.8-1.9-8.2-2.1c-0.4-0.2-0.7-0.6-0.7-1c0-0.5,0.3-2,0.9-4.2l0.5-1.8
		L109.7,97.2z M107.6,94.5c0.5,0.7,1.1,1.5,1,1.6c0,0.1-0.3,0-1-0.3l-0.5-0.2l0.2-0.6l0.2-0.6L107.6,94.5z M108.7,92.8
		c0.3,0.6,1,1.7,1.5,2.5c0.5,0.8,0.9,1.4,0.9,1.5s-0.2,0-0.4,0c-0.4-0.1-0.4-0.1-0.9-0.8c-0.3-0.4-0.8-1.2-1.2-1.8
		c-0.4-0.6-0.7-1.1-0.7-1c0,0.1,1,1.8,1.6,2.8c0.2,0.3,0.4,0.6,0.4,0.6c0,0-0.2-0.1-0.5-0.2c-0.5-0.2-0.5-0.2-1.2-1.2l-0.7-1
		l0.3-1.2l0.3-1.2L108.7,92.8z M109.4,92.3c0.9,1.5,1.7,2.9,2.7,4.4c0.2,0.3,0.3,0.5,0.2,0.5S112,97,111.8,97l-0.4-0.1l-1.2-1.9
		c-0.7-1-1.4-2.2-1.6-2.7c-0.4-0.8-0.4-0.8-0.3-1.2l0.1-0.4L109.4,92.3z M110.6,92.6c1,1.8,2.1,3.6,2.4,4.1l0.6,0.8l-0.4-0.1
		c-0.3-0.1-0.5-0.2-0.6-0.2c-0.3-0.3-1.9-2.9-3-4.8l-1.1-1.9l0.1-0.5l0.1-0.5L110.6,92.6z M111,91.7c1.1,1.9,2.3,4,2.8,4.8l0.8,1.3
		l-0.4-0.1l-0.4-0.1l-0.9-1.4c-0.5-0.8-1.6-2.7-2.5-4.2l-1.6-2.8l0.1-0.5l0.1-0.5L111,91.7z M112.4,92.5c2.2,3.7,3.1,5.3,3,5.4
		c-0.1,0-0.2,0-0.3,0c-0.3-0.1-1.2-1.6-4-6.4l-2-3.5l0.1-0.4l0.1-0.4L112.4,92.5z M111.2,89.1c0.9,1.6,2.4,4.3,3.5,6l1.8,3.1
		l-0.4-0.1l-0.4-0.1l-3.2-5.5l-3.2-5.5l0.1-0.4l0.1-0.4L111.2,89.1z M111.4,87.7c0.8,1.4,2,3.4,2.5,4.5c0.6,1,1.6,2.8,2.3,4l1.3,2.2
		l-0.4-0.1l-0.4-0.1l-1.6-2.8c-0.9-1.5-2.5-4.3-3.6-6.1l-1.9-3.4l0.1-0.5l0.1-0.5L111.4,87.7z M110.4,84.4c0.3,0.1,0.2,0,2.3,3.8
		c2,3.8,3.1,5.7,4.6,8.3c0.7,1.3,1.3,2.3,1.3,2.3c0,0-0.2,0-0.4-0.1c-0.4-0.1-0.4-0.2-1.9-2.7c-0.8-1.4-1.9-3.3-2.4-4.2
		c-0.5-0.9-1.6-2.8-2.4-4.2L110,85l0.1-0.4l0.1-0.4L110.4,84.4z M111.5,79.6c0.7-2.1,1.2-3.5,1.5-3.8c0.1-0.1,0.9,0,1.7,0.2
		c1.1,0.2,8.4,2.2,8.6,2.4c0.3,0.2,0.3,0.5,0.3,1.5c-0.1,0.8-0.2,1.2-0.9,3.8c-0.4,1.6-0.8,2.9-0.8,2.9c-0.1,0.1-5.3-1.3-6.7-1.8
		c-0.8-0.3-2.2-0.7-3.2-1l-1.7-0.5l0.3-1C110.8,81.9,111.2,80.6,111.5,79.6z M112,84.8c0.3,0.2,0.4,0.2,0.7,0.9
		c0.2,0.4,0.9,1.6,1.4,2.7c0.6,1.1,1.5,2.8,2,3.8c0.5,1,1.4,2.6,1.9,3.6l1,1.8l-0.1,0.5l-0.1,0.5l-2.1-3.8c-1.2-2.1-2.5-4.5-2.9-5.3
		c-0.4-0.8-1.2-2.2-1.7-3.2l-0.9-1.8l0.3,0.1C111.5,84.7,111.8,84.8,112,84.8z M113.8,85.8c0.1,0.3,0.6,1.1,1,1.8
		c0.8,1.5,2.3,4.4,2.9,5.6c1,2,1.3,2.6,1.4,2.8s0.2,0.3,0,0.7l-0.2,0.5l-1.2-2.3c-2.1-4.1-3.6-6.9-4.4-8.4l-0.8-1.5l0.5,0.1l0.5,0.1
		L113.8,85.8z M115.2,86.2c0.2,0.4,1.6,3.4,2.4,4.9c0.2,0.3,0.4,1,0.6,1.3c0.2,0.4,0.4,0.9,0.6,1.2c0.1,0.3,0.4,0.8,0.5,1.1
		c0.2,0.5,0.2,0.6,0.2,1l-0.1,0.4l-0.1-0.2c-0.1-0.1-0.5-1-1-2.1c-1-2.1-2.4-4.9-3.6-7l-0.8-1.4l0.6,0.1l0.6,0.1L115.2,86.2z
		 M115.8,86l0.5,0.1l0.6,1.4c0.5,1.3,1.1,2.7,2.6,5.7c0.4,0.8,0.4,0.8,0.3,1.3l-0.1,0.4l-0.1-0.3c-0.1-0.2-0.3-0.7-0.5-1.1
		c-0.2-0.4-0.5-1-0.6-1.4c-0.2-0.3-0.6-1.2-0.9-1.9c-1.2-2.5-2.2-4.4-2.1-4.4C115.3,85.9,115.5,85.9,115.8,86z M116.9,86.3l0.4,0.1
		l0.6,1.2c0.7,1.5,1.2,2.7,1.8,4.1c0.4,1,0.4,1.1,0.3,1.5c-0.1,0.5-0.1,0.5-0.4-0.2c-0.1-0.2-0.6-1.2-1-2.1c-0.4-0.9-1-2.1-1.2-2.6
		c-0.4-0.9-0.9-2.3-0.9-2.3C116.5,86.2,116.7,86.3,116.9,86.3z M118.5,86.7l0.9,0.2l0.3,0.8c0.2,0.4,0.5,1.2,0.7,1.7
		c0.4,0.9,0.4,1,0.3,1.3l-0.1,0.4l-0.5-1.2c-0.3-0.6-0.6-1.4-0.7-1.7c-0.3-0.8-0.7-1.5-0.8-1.5c0,0,0.1,0.5,0.4,1
		c0.2,0.5,0.7,1.6,1,2.3l0.6,1.4l-0.1,0.5c-0.1,0.5-0.1,0.5-0.2,0.3c-0.2-0.4-1.3-3.1-1.7-4c-0.5-1.1-0.9-1.9-0.9-1.9
		C117.6,86.4,118,86.5,118.5,86.7L118.5,86.7z M120,87.1l0.4,0.1l0.2,0.8c0.1,0.4,0.3,0.8,0.4,0.9c0.1,0.2,0.1,0.3,0,0.7l-0.1,0.5
		l-0.4-0.9c-0.2-0.5-0.5-1.1-0.6-1.5c-0.2-0.3-0.3-0.6-0.3-0.6C119.7,87,119.8,87,120,87.1z M121.4,87.4c0.3,0.1,0.3,0.1,0.2,0.3
		c-0.1,0.1-0.2,0.4-0.2,0.7c-0.1,0.3-0.1,0.4-0.2,0.4s-0.2-0.4-0.3-0.7l-0.2-0.7l0.2,0C121,87.3,121.2,87.3,121.4,87.4z"/>
	<path class="st1" d="M115.6,104.4c0,0.1,0.1,0.2,0.2,0.2c0.1,0.1,0.3,0.3,0.4,0.5c0.2,0.2,0.3,0.3,0.3,0.2c0-0.1-0.6-1.1-0.8-1.1
		C115.7,104.2,115.6,104.3,115.6,104.4z"/>
	<path class="st1" d="M116.2,103.5c0.1,0.1,0.2,0.2,0.3,0.4c0.1,0.1,0.2,0.2,0.2,0.2c0-0.1-0.4-0.8-0.5-0.8
		C116.1,103.1,116.1,103.3,116.2,103.5z"/>
	<path class="st1" d="M116.8,102.4c0.2,0.3,0.3,0.4,0.4,0.4c0.1-0.1-0.4-1-0.5-1C116.5,101.7,116.5,101.9,116.8,102.4z"/>
	<path class="st1" d="M117.1,101.1c0.1,0.2,0.2,0.3,0.3,0.2c0.1,0-0.2-0.6-0.4-0.6C116.9,100.6,116.9,100.8,117.1,101.1z"/>
	<path class="st1" d="M113.2,78.2c0.2,0,0.3,0,0.2,0c0-0.1-0.1-0.1-0.3-0.2c-0.1,0-0.2,0-0.2,0C112.9,78,113.1,78.1,113.2,78.2z"/>
	<path class="st1" d="M113.6,77c0.1,0,0.8,0.3,1.7,0.5c1,0.3,1.6,0.4,1.5,0.3c-0.2-0.1-3.1-1-3.2-0.9
		C113.5,76.9,113.5,76.9,113.6,77z"/>
	<path class="st1" d="M120.8,85.3c0.1,0.2,0.6,0.8,0.7,0.8c0.1-0.1-0.4-0.8-0.6-0.9C120.7,85.2,120.7,85.2,120.8,85.3z"/>
	<path class="st1" d="M121.7,83.2c0.3,0.5,0.6,0.8,0.7,0.8c0.1,0,0-0.1-0.2-0.4c-0.2-0.2-0.4-0.5-0.5-0.8c-0.2-0.3-0.2-0.4-0.2-0.2
		C121.5,82.7,121.6,83,121.7,83.2z"/>
	<path class="st1" d="M122.1,81.6c0.1,0.2,0.3,0.4,0.4,0.5c0.2,0.2,0.4,0.1,0.2,0c-0.2-0.2-0.5-0.7-0.6-0.9c0-0.1-0.1-0.2-0.1-0.2
		C121.9,81,121.9,81.2,122.1,81.6z"/>
	<path class="st1" d="M121.5,84.7c0.2,0.3,0.3,0.4,0.4,0.3c0-0.1-0.4-0.8-0.6-0.9C121.1,84.1,121.1,84.3,121.5,84.7z"/>
	<path class="st1" d="M122.7,80.2c0.1,0.2,0.2,0.3,0.2,0.2c0.1,0-0.2-0.7-0.3-0.7C122.5,79.7,122.5,79.9,122.7,80.2z"/>
</g>
<g class="st0">
	<path class="st1" d="M100.5,691.1c-0.1-0.3-0.3-0.9-0.5-1.3c-0.4-1-0.7-1.2-3.3-2.7c-7.1-4-14.1-7.3-25.4-11.8
		c-3.2-1.3-6.1-2.5-6.4-2.6c-0.3-0.1-2-0.9-3.9-1.8c-1.9-0.8-4.3-1.9-5.3-2.4c-4.4-2-6.5-2.9-8.3-3.7c-1.1-0.4-2-0.9-2.1-1
		c-0.1-0.1-0.6-0.4-1-0.6c-1.3-0.7-2.3-1.3-3.7-2.5l-1.4-1.1l-0.6-1.2c-0.3-0.7-0.7-1.5-0.8-1.9c-0.6-2.1-4.9-7.8-7.4-9.9
		c-2.9-2.4-5.7-3.9-8.1-4.1c-1.9-0.2-4.4,0-6.1,0.6c-1.4,0.4-3.8,2-4.6,3c-0.4,0.5-2.3,1.3-3.4,1.5c-0.5,0.1-1.2,0.1-1.6,0
		c-1.4-0.2-1.5-0.2-1.9,0c-0.6,0.2-0.8,0.5-0.6,1c0.2,0.5,0.6,0.9,1.4,1.2c1,0.4,2.2,0.5,3.3,0.4c0.5,0,0.9-0.1,0.9,0
		c0,0,0,0.5,0,1.2c0,1.2,0.1,1.7,0.5,2.8c0.4,1,0.8,1.5,2,2.6l1,0.9l1.9,0.9c2.9,1.3,3.7,1.5,7.1,1.8c2.1,0.1,4,0.4,5.2,0.7
		c1.2,0.3,4,1.4,4.9,1.9c1.7,1.1,4.9,4.3,4.6,4.6c-0.2,0.1-1.2,0.2-2.8,0.1c-3.3-0.2-6.1-0.7-7.3-1.4c-1.8-1-4.3-2.6-6.9-4.3
		c-2.1-1.4-4-2.2-5.6-2.5c-3.3-0.6-4.5-0.3-6.3,1.4c-1.2,1.1-1.6,1.7-2.4,4.1c-0.5,1.4-0.6,1.7-0.6,2.2c0,1,0.4,3.8,0.7,4.4
		c0.3,0.7,1.5,2.3,2.2,3c1.4,1.3,4.4,2.6,6.8,3c1,0.2,3.2,0.1,4.5-0.1c0.7-0.1,1.7-0.3,2.2-0.3c1-0.1,2.7-0.5,5.2-1.2
		c3.5-1,5.9-1.3,9.6-1c1.6,0.1,3.5,0.6,4.2,1c0.4,0.2,0.8,0.2,0.9-0.1l0.1-0.2l3.6,1.3c2,0.7,5.7,2.1,8.3,3.1
		c4.3,1.7,10.7,3.9,15.2,5.4c1.1,0.4,3.3,1.1,4.9,1.7s3.6,1.2,4.3,1.4c1.6,0.4,5.7,1.7,6.8,2.1c0.5,0.2,1.5,0.5,2.4,0.8
		c0.9,0.2,2.4,0.7,3.3,1c3.8,1.2,5.3,1.6,6.9,1.6c1.3,0,2.8-0.6,3-1.2c0-0.1,0.2-0.2,0.3-0.2C100.5,692.3,100.7,691.8,100.5,691.1
		L100.5,691.1z M99.2,691.2c-0.2,0-3.8-1.4-8.2-3.1c-4.3-1.7-8.9-3.4-10.1-3.8c-1.3-0.4-3.9-1.4-5.9-2.2c-4.1-1.6-7.5-2.8-9.9-3.5
		c-0.9-0.3-2.1-0.7-2.7-0.9c-2.1-0.8-6.7-2.2-8-2.4c-0.7-0.1-0.9-0.1-1.7,0.2c-0.5,0.2-1.3,0.5-1.7,0.6c-0.5,0.1-1.1,0.3-1.5,0.5
		l-0.7,0.2l-2-0.6c-1.1-0.3-2.5-0.8-3.2-1c-0.6-0.2-1.6-0.5-2.1-0.7l-0.9-0.4l-0.7-1.5c-0.4-0.9-0.9-2.2-1.2-3.1
		c-0.3-0.8-0.6-1.6-0.6-1.8l-0.1-0.3l0.9-0.5c1.2-0.6,1.4-0.7,3.5-1.4c1-0.4,1.9-0.7,2-0.8c0.2-0.1,0.4,0,1.7,0.5
		c0.8,0.3,2.1,0.9,2.9,1.3c0.8,0.4,2.6,1.2,4.1,1.9c1.5,0.6,3.5,1.5,4.4,1.9c3.4,1.6,6.7,3,13.3,5.7c7.5,3.1,11.7,4.9,16.6,7.2
		c3.7,1.7,7.9,4,10.8,5.8c0.6,0.3,1.2,1.1,1.3,1.7C99.6,691.2,99.6,691.3,99.2,691.2z M98,692.4c-0.7,0.2-1.5,0.1-2.6,0
		c-0.9-0.2-4.5-1.1-7.5-2c-1.8-0.5-3-0.9-8.7-2.7c-4.6-1.4-5.3-1.7-8.2-2.7c-1.6-0.6-3.5-1.2-4.2-1.4c-0.7-0.2-2.6-0.8-4.1-1.4
		c-1.6-0.6-4.3-1.5-6-2.1c-1.8-0.6-3.8-1.4-4.9-1.9l-1.8-0.8l0.8-0.3c2.3-0.9,2.8-1.1,3.2-1.1c0.5,0,5.6,1.6,7.2,2.2
		c0.6,0.2,1.9,0.7,3,1c2.8,0.8,5.8,1.9,12,4.2c3.1,1.1,7.4,2.7,9.5,3.5c2.1,0.8,5.1,1.9,6.7,2.5c1.5,0.6,3.6,1.4,4.6,1.8
		c1.7,0.7,1.8,0.7,1.6,0.8C98.6,692.2,98.3,692.3,98,692.4z M33,658.6c-0.2,0.1-0.3,0.1-1-0.2c-1.3-0.6-7-2.4-8-2.6
		c-0.5-0.1-1.6-0.3-2.6-0.5c-1.4-0.2-1.9-0.4-3-0.8c-1.3-0.5-1.3-0.5-1.9-1.1c-0.5-0.5-0.6-0.7-0.7-1.3c-0.1-0.7-0.1-0.7,0.4-1.9
		c0.7-1.7,0.9-2,2.1-2.7c2.4-1.3,4.2-0.9,7.8,1.8c2.4,1.8,5.4,5.5,6.9,8.4C33.3,658.4,33.3,658.4,33,658.6z M27.4,671.4
		c-1,0.3-4.7,0.9-6.2,1.1c-2.4,0.2-6.1,0-7.9-0.4c-0.9-0.2-2.2-0.9-2.7-1.4c-0.4-0.5-0.9-1.3-0.9-1.9c0-0.3,0.1-0.8,0.3-1.6
		c0.4-1.4,0.8-1.9,1.7-2.6c1-0.7,1.8-0.8,3.6-0.5c1.3,0.2,2.4,0.7,5.1,2.3c2.3,1.3,3.1,1.8,4.5,2.4c2.1,1,3.1,1.6,3.2,1.9
		c0,0.2,0.1,0.3,0.1,0.3C28.2,671.1,27.8,671.2,27.4,671.4z M31.7,650.1c-0.5-0.6-1.8-1.8-3.3-3.2c-0.8-0.7-2.7-1.9-3.8-2.5
		l-0.8-0.4l0.9,0.3c1.2,0.4,2.9,1.5,4.4,2.8c1.2,1.1,2.6,2.5,2.9,3C32.5,650.8,32.3,650.7,31.7,650.1z M21.9,643.9
		c-0.3,0-0.6-0.1-0.8-0.1c-0.2,0-0.2-0.1-0.2-0.1c0.2-0.1,1.4-0.1,1.5,0C22.7,643.9,22.5,643.9,21.9,643.9z"/>
	<path class="st1" d="M48.9,671c0.1-0.6,0-1-0.3-1.6c-0.7-1.4-2.7-1.9-3.9-1c-0.4,0.3-0.5,0.5-0.8,1.1c-0.2,0.6-0.3,0.8-0.2,1.3
		c0.1,0.7,0.4,1.2,0.9,1.6C46.2,673.7,48.7,672.9,48.9,671z M47.4,671.7c-0.8,0.7-2.1,0.2-2.5-0.9c-0.4-1.1,0.8-2.1,1.9-1.7
		c0.5,0.2,0.8,0.5,1,1.1C48,670.8,47.8,671.3,47.4,671.7z"/>
	<path class="st1" d="M59.1,678.5c-0.3,0.1-0.6,0.2-0.5,0.3c0.1,0.1,1-0.2,1-0.3C59.6,678.4,59.5,678.4,59.1,678.5z"/>
	<path class="st1" d="M58.4,677.8c-0.1,0-1.6,0.4-1.7,0.6c-0.1,0.1,0,0.1,0.3,0c0.2-0.1,0.6-0.2,0.9-0.3
		C58.4,678,58.6,677.9,58.4,677.8z"/>
	<path class="st1" d="M56.6,677.1c-0.3,0-2,0.6-2,0.7c-0.1,0.1,0.2,0.1,1.2-0.2c0.5-0.2,1-0.4,1-0.4
		C56.8,677.1,56.8,677.1,56.6,677.1z"/>
	<path class="st1" d="M55,676.5c-0.1,0-1.6,0.5-1.7,0.6c-0.1,0.1,0.6,0,1.2-0.2C55.1,676.6,55.2,676.6,55,676.5z"/>
</g>
<g class="st0">
	<path class="st1" d="M486.1,38.8c-0.4,0-1.2,0.2-1.8,0.4c-1.4,0.4-1.7,0.7-4,4c-6.3,8.7-11.6,17.3-19.2,31.4
		c-2.2,4-4.1,7.6-4.3,7.9c-0.2,0.3-1.5,2.5-2.9,4.9c-1.4,2.4-3.1,5.3-3.9,6.6c-3.3,5.5-4.8,8.1-6,10.3c-0.7,1.3-1.4,2.5-1.6,2.6
		c-0.2,0.1-0.6,0.7-1,1.2c-1.1,1.6-2.1,2.7-3.8,4.5l-1.6,1.6l-1.7,0.6c-0.9,0.3-2.1,0.7-2.6,0.8c-2.8,0.5-11,5.2-14.1,8.2
		c-3.6,3.5-5.9,6.9-6.6,10c-0.5,2.4-0.6,5.7-0.2,8.1c0.4,1.9,2,5.2,3.2,6.4c0.6,0.6,1.4,3.2,1.4,4.6c0,0.7-0.1,1.5-0.2,2.1
		c-0.5,1.7-0.5,2-0.4,2.5c0.2,0.8,0.6,1.1,1.2,1c0.7-0.1,1.2-0.6,1.8-1.7c0.6-1.2,1-2.7,1.1-4.2c0-0.6,0-1.1,0.1-1.1
		c0,0,0.7,0.1,1.5,0.2c1.6,0.2,2.2,0.2,3.7-0.2c1.4-0.3,2.1-0.8,3.7-2.2l1.3-1.2l1.4-2.4c2.2-3.6,2.6-4.6,3.4-9.1
		c0.5-2.7,1.1-5.2,1.6-6.7c0.6-1.6,2.4-5,3.2-6.1c1.6-2.1,6.3-5.8,6.6-5.3c0.2,0.3,0,1.6-0.3,3.6c-0.7,4.2-1.9,7.9-3,9.4
		c-1.5,2.2-4,5.3-6.6,8.4c-2.1,2.5-3.4,4.8-4.1,6.9c-1.2,4.2-1.1,5.8,0.8,8.5c1.2,1.7,2,2.3,4.9,3.8c1.7,0.8,2.2,1,2.8,1.1
		c1.3,0.1,5,0,5.8-0.3c1-0.3,3.2-1.6,4.2-2.5c1.9-1.7,4.1-5.4,4.9-8.5c0.4-1.3,0.6-4.1,0.5-5.8c0-0.9-0.1-2.3-0.1-3
		c0-1.4-0.2-3.6-0.8-6.9c-0.8-4.8-0.8-7.9,0.2-12.6c0.4-2.1,1.3-4.5,1.9-5.3c0.3-0.5,0.3-1,0-1.2l-0.3-0.1l2.2-4.5
		c1.2-2.5,3.5-7.1,5.2-10.3c2.8-5.4,6.7-13.3,9.4-19.1c0.6-1.3,1.9-4.1,2.9-6.1c1-2,2.1-4.5,2.4-5.4c0.8-2.1,3.1-7.2,3.8-8.5
		c0.3-0.6,0.9-1.9,1.4-3c0.4-1.1,1.3-3,1.8-4.2c2.1-4.7,2.8-6.7,3.1-8.8c0.2-1.7-0.3-3.7-1.1-4.1c-0.2-0.1-0.2-0.2-0.2-0.5
		C487.6,39,487,38.7,486.1,38.8L486.1,38.8z M486,40.5c-0.1,0.2-2.4,4.8-5.2,10.2c-2.8,5.4-5.7,11.1-6.5,12.6
		c-0.7,1.6-2.4,4.9-3.8,7.4c-2.7,5.1-4.8,9.4-6,12.5c-0.5,1.1-1.2,2.7-1.5,3.4c-1.4,2.7-3.8,8.4-4.3,10.1c-0.2,0.9-0.2,1.2,0.1,2.2
		c0.2,0.7,0.4,1.7,0.5,2.3c0.1,0.6,0.3,1.5,0.4,2l0.2,0.9l-1.1,2.5c-0.6,1.4-1.4,3.2-1.7,4c-0.4,0.8-0.9,2-1.3,2.7l-0.6,1.2L453,115
		c-1.2,0.4-3,0.8-4.2,1.1c-1.1,0.2-2.2,0.5-2.4,0.6l-0.4,0.1l-0.5-1.2c-0.6-1.6-0.7-1.9-1.4-4.8c-0.3-1.3-0.6-2.6-0.7-2.7
		c-0.1-0.2,0-0.6,0.9-2.2c0.5-1,1.5-2.7,2.2-3.6c0.6-1,2-3.3,3.1-5.1c1.1-1.8,2.5-4.3,3.2-5.4c2.6-4.2,4.9-8.3,9.4-16.5
		c5.1-9.4,8.1-14.5,11.9-20.5c2.8-4.5,6.4-9.8,9.1-13.3c0.5-0.7,1.6-1.3,2.4-1.4C486.1,40,486.1,40,486,40.5z M487.4,42.3
		c0.1,1,0,2-0.4,3.3c-0.3,1.1-2.1,5.7-3.7,9.5c-1,2.3-1.6,3.8-4.8,10.9c-2.5,5.7-3,6.6-4.7,10.2c-1,2-2.1,4.4-2.5,5.3
		c-0.4,0.9-1.5,3.2-2.4,5.2c-1,2-2.6,5.3-3.6,7.5c-1.1,2.3-2.4,4.8-3.2,6.1l-1.3,2.2l-0.3-1c-0.8-3.1-1-3.9-0.9-4.3
		c0.1-0.6,2.9-7.1,4-9.1c0.4-0.7,1.2-2.4,1.7-3.7c1.5-3.5,3.3-7.3,7.2-15.1c2-3.9,4.6-9.2,5.9-11.9s3.2-6.4,4.3-8.3
		c1-1.9,2.4-4.5,3.1-5.8c1.1-2.1,1.2-2.2,1.3-2C487.2,41.4,487.3,41.8,487.4,42.3z M433.6,122c0.1,0.2,0.1,0.4-0.4,1.3
		c-0.9,1.7-4.2,8.8-4.6,10c-0.2,0.6-0.7,2.1-1,3.3c-0.5,1.8-0.8,2.4-1.5,3.8c-0.9,1.7-0.9,1.7-1.8,2.3c-0.8,0.5-1,0.6-1.8,0.7
		c-0.9,0.1-0.9,0-2.4-0.8c-2.1-1.1-2.5-1.5-3.2-3.1c-1.4-3.3-0.5-5.7,3.6-9.9c2.7-2.8,8-6.2,12-7.7
		C433.4,121.6,433.4,121.6,433.6,122z M449.4,131.3c0.2,1.3,0.5,6.3,0.5,8.3c-0.1,3.2-0.9,8-1.7,10.2c-0.4,1.2-1.5,2.8-2.2,3.4
		c-0.7,0.5-1.8,0.9-2.6,0.9c-0.4,0-1.1-0.2-2-0.6c-1.7-0.7-2.4-1.3-3.1-2.7c-0.7-1.4-0.7-2.4-0.1-4.8c0.5-1.6,1.3-3,3.8-6.4
		c2-2.7,2.8-3.8,3.8-5.5c1.6-2.6,2.5-3.8,3-3.9c0.2,0,0.4-0.1,0.4-0.1C449.2,130.2,449.3,130.7,449.4,131.3z M422.3,122.4
		c-0.8,0.6-2.6,2.1-4.6,3.9c-1,0.9-2.9,3.2-3.9,4.6l-0.6,0.9l0.6-1.2c0.7-1.5,2.4-3.6,4.4-5.3c1.6-1.4,3.6-3,4.3-3.4
		C423.3,121.5,423.2,121.8,422.3,122.4z M412.7,134.3c-0.1,0.4-0.2,0.8-0.2,1c-0.1,0.2-0.1,0.3-0.2,0.2c-0.1-0.2,0.1-1.8,0.3-2
		C412.9,133.3,412.9,133.5,412.7,134.3z"/>
	<path class="st1" d="M452.2,103.1c-0.8-0.2-1.3-0.2-2.1,0.1c-2,0.7-2.9,3.2-1.9,5c0.4,0.6,0.5,0.8,1.3,1.2c0.7,0.4,1,0.5,1.6,0.4
		c0.9,0,1.6-0.3,2.3-0.9C455.3,107.1,454.6,103.7,452.2,103.1z M452.9,105.2c0.8,1.1,0,2.8-1.5,3.1c-1.5,0.3-2.6-1.4-1.9-2.8
		c0.3-0.6,0.8-1,1.6-1.2C451.7,104.2,452.4,104.6,452.9,105.2z"/>
	<path class="st1" d="M463.5,91c0.1,0.4,0.2,0.8,0.3,0.7c0.2-0.1-0.1-1.3-0.3-1.4C463.4,90.2,463.3,90.4,463.5,91z"/>
	<path class="st1" d="M462.5,91.8c-0.1,0.2,0.3,2.2,0.5,2.3c0.1,0.1,0.1,0,0.1-0.4c0-0.3-0.1-0.8-0.2-1.2
		C462.7,91.8,462.6,91.5,462.5,91.8z"/>
	<path class="st1" d="M461.3,94c0,0.4,0.6,2.7,0.7,2.8c0.2,0.1,0.2-0.2-0.1-1.5c-0.1-0.7-0.3-1.4-0.4-1.4
		C461.3,93.7,461.3,93.8,461.3,94z"/>
	<path class="st1" d="M460.2,96c-0.1,0.1,0.4,2.1,0.6,2.3c0.2,0.2,0.1-0.7-0.1-1.5C460.4,95.9,460.4,95.8,460.2,96z"/>
</g>
<g class="st0">
	<path class="st1" d="M376.1,696c-0.4,0.8-0.4,1.9,0,6c0.3,3.6,0.6,6.7,0.8,7.7c0.1,0.4,0,0.4-0.4,0.6c-1,0.5-1.2,1.2-0.8,2.9
		c0.3,1.2,1.7,5.3,1.9,5.6c0.1,0.1,0,0.2-0.5,0.4c-0.8,0.4-1.5,0.9-2,1.4c-0.9,0.9-0.8,2,0.8,7.2c1,3.5,4.9,14.7,6.4,18.5
		c1.9,4.8,2.6,5.7,4.7,6.1c0.4,0.1,3.1-0.6,4.9-1.2c1.6-0.5,8.5-3,10.7-3.9c1.5-0.6,1.8-0.7,2.1-1c0.5-0.5,0.7-1.2,0.7-1.8
		c0-1.3-0.3-2.3-2.2-7.5c-2.4-6.8-2.3-6.7-4.4-13.1c-1.9-5.9-2.3-7-3.1-8.1c-1.1-1.5-2.5-1.9-4.3-1.5l-0.9,0.2l-1-3.1
		c-0.9-2.7-1.1-3.2-1.4-3.6c-0.5-0.7-0.8-0.8-1.7-0.6l-0.8,0.1l-0.5-0.8c-0.3-0.5-1-1.6-1.6-2.5c-0.6-1-1.7-2.5-2.3-3.5
		c-2.6-3.9-3-4.4-3.7-4.9C376.8,695.3,376.4,695.5,376.1,696z M377.4,696.7c0.2,0.3,1.3,1.8,2.3,3.4c1,1.6,2.2,3.5,2.7,4.2
		c1.4,2.2,2.1,3.3,2.1,3.4c0,0-1.5,0.5-3.4,1.1l-3.3,1.1l-0.1-0.4c-0.1-0.8-0.3-2.9-0.5-4.8c-0.1-1-0.2-3.1-0.4-4.5
		c-0.2-2.3-0.2-3.9,0-4C376.9,696.2,377.1,696.4,377.4,696.7z M386.2,708.2c0.7-0.2,0.8-0.2,1,0c0.2,0.2,2.1,6.1,2.1,6.5
		c0,0.1-0.6,0.4-4.9,1.8c-2.7,0.9-5.1,1.8-5.4,1.9l-0.5,0.2l-1.1-3.2c-1.1-3.3-1.1-3.5-0.9-4.1c0.1-0.2,0.3-0.3,4.5-1.7
		C383.4,709,385.7,708.3,386.2,708.2z M392.8,714.9c0.2,0,0.6,0.2,0.9,0.3c1,0.4,1.5,1.4,2.8,4.7l0.7,1.9l-10.1,3.5l-10.1,3.5
		l-0.7-2.3c-0.7-2.2-1-3.5-1-4.5c0-0.7,1-1.4,2.8-2.2c0.6-0.3,4.2-1.5,7.8-2.7C391.8,715,392.5,714.8,392.8,714.9z M378.8,729.6
		c0.6,1.2,2.5,5.5,3.2,7.4c1,2.7,0.8,2.7-0.3,0c-0.4-1-1.1-2.5-1.5-3.4c-0.4-0.9-1-2.1-1.2-2.7c-0.2-0.6-0.5-1.2-0.6-1.3
		c-0.1-0.2-0.1-0.2,0-0.3C378.5,729.4,378.7,729.4,378.8,729.6z M380,729.4c0.1,0.3,1.9,4.6,2,4.7c0.1,0.1,0.1,0.1,0,0.2
		c0,0-0.2-0.1-0.2-0.2c-0.2-0.4-2.1-4.5-2.1-4.7C379.7,729.1,380,729.1,380,729.4z M381.4,729.2c0.2,0.5,0.1,0.7-0.2,0.3
		c-0.2-0.4-0.3-0.7-0.1-0.7C381.2,728.8,381.3,728.9,381.4,729.2z M392.7,741.9c7.6-2.5,9.9-3.3,10-3.2c0.3,0.2,1.1,3.2,1.4,5
		c0.1,0.9,0.1,1.2-0.3,1.9l-0.2,0.4l-6.5,2.3c-7.6,2.8-9.2,3.2-10.3,3.1c-1.1-0.2-1.9-0.9-2.7-2.5c-0.6-1.2-1.5-3.8-1.4-3.7
		C382.8,745.2,387.3,743.7,392.7,741.9z"/>
	<path class="st1" d="M378,705.4c0,0.6,0.3,2.3,0.4,3.1c0.1,0.4,0.1,0.5,0.2,0.5c0.1,0,0.1-0.1,0.1-0.1c0,0-0.1-0.9-0.2-1.9
		c-0.1-1-0.2-1.9-0.3-2C378.1,704.7,378,704.9,378,705.4z"/>
	<path class="st1" d="M377.4,712.6c0.1,0.7,1.5,4.1,1.7,4.3c0.1,0.1,0.3,0.2,0.3,0.2c0.1,0,0-0.4-0.4-1.3c-0.3-0.7-0.7-1.8-1-2.5
		c-0.3-0.9-0.5-1.2-0.6-1.2C377.4,712.2,377.4,712.4,377.4,712.6z"/>
	<path class="st1" d="M379,712.3c0.1,0.7,1.3,3.8,1.6,4.3c0.1,0.2,0.2,0.3,0.3,0.3c0.1,0-1.7-5.2-1.9-5.2
		C378.9,711.7,378.9,711.9,379,712.3z"/>
	<path class="st1" d="M380.6,711.3c0,0.3,1.6,4.7,1.8,4.8c0.3,0.1,0.1-0.5-0.7-2.8c-0.6-1.8-0.8-2.2-0.9-2.2
		C380.7,711.1,380.6,711.2,380.6,711.3z"/>
	<path class="st1" d="M382.4,710.7c0,0.1,0.3,1.1,0.8,2.2c0.7,1.8,1,2.4,1.2,2.3c0.1,0-1.5-4.5-1.7-4.6
		C382.5,710.4,382.4,710.5,382.4,710.7z"/>
	<path class="st1" d="M385,712.4c0.8,2.3,1.1,3,1.3,2.7c0-0.1-0.3-1.1-0.8-2.6c-0.8-2.3-0.9-2.5-1.1-2.5
		C384.2,710,384.3,710.2,385,712.4z"/>
	<path class="st1" d="M386,709.5c-0.1,0.1,1.2,3.8,1.5,4.4c0.1,0.2,0.3,0.4,0.4,0.4c0.1,0,0-0.4-0.7-2.4
		C386.3,709.7,386.1,709.2,386,709.5z"/>
	<path class="st1" d="M392,716.7c0.1,0.2,0.2,0.4,0.3,0.5c0.1,0.1,0.1,0,0-0.4c-0.1-0.3-0.2-0.5-0.3-0.4
		C391.9,716.4,391.9,716.6,392,716.7z"/>
	<path class="st1" d="M393.3,716.6c0.1,0.1,0.4,0.6,0.9,2c0.4,1,0.7,1.9,0.7,1.9c0,0,0.1,0,0.1,0c0.1,0-1.1-3.6-1.4-4
		c-0.1-0.1-0.2-0.2-0.3-0.1C393.1,716.4,393.1,716.5,393.3,716.6z"/>
	<path class="st1" d="M402.2,741.5c0.2,0.7,0.7,3.1,0.8,3.9c0,0.3,0.1,0.3,0.2,0c0.1-0.7-0.9-4.8-1.1-4.7
		C402,740.7,402,741,402.2,741.5z"/>
	<path class="st1" d="M384.8,747.7c0,0.2,0.7,1.7,1.1,2.3c0.3,0.5,1,0.9,1,0.8c0,0-0.1-0.2-0.3-0.3c-0.4-0.3-0.9-1.1-1.4-2.1
		C385,747.5,384.8,747.3,384.8,747.7z"/>
	<path class="st1" d="M402.1,744.2c0.1,0.2,0.1,0.3,0.2,0.3c0,0,0-0.2,0-0.4c0-0.2-0.1-0.3-0.2-0.3C402,743.8,402,744,402.1,744.2z"
		/>
	<path class="st1" d="M387,749.5c0.1,0.2,0.3,0.4,0.4,0.3c0.1-0.1-0.2-0.5-0.3-0.4C387,749.4,387,749.5,387,749.5z"/>
	<path class="st1" d="M388.4,749.4c0,0.3,0.2,0.5,0.2,0.2c0-0.3,0-0.5-0.1-0.4C388.4,749.2,388.4,749.3,388.4,749.4z"/>
</g>
<g class="st0">
	<path class="st1" d="M206.6,651.1c0.4,1.1,1.3,2,5.2,5.4c3.4,2.9,6.3,5.4,7.4,6.2c0.4,0.3,0.4,0.3,0.2,0.9c-0.5,1.3,0,2.2,1.8,3.3
		c1.3,0.8,6.2,3.3,6.6,3.3c0.2,0,0.2,0.1-0.1,0.9c-0.4,1.1-0.6,2.1-0.6,3c0,1.6,1.1,2.5,7,5.8c3.9,2.2,17.2,8.8,21.8,10.9
		c5.9,2.7,7.2,2.9,9.5,1.3c0.4-0.3,2.3-3.2,3.4-5.3c1-1.8,4.9-10.1,6.2-12.7c0.8-1.8,1-2.2,1-2.7c0-0.8-0.4-1.7-1-2.2
		c-1.2-1.1-2.3-1.7-8.5-4.8c-8-4-7.9-4-15.4-7.9c-6.9-3.6-8.1-4.2-9.8-4.5c-2.2-0.4-3.9,0.4-5.1,2.5l-0.6,1l-3.6-1.9
		c-3.1-1.6-3.7-1.9-4.4-2c-1.1-0.2-1.4-0.1-2.1,0.9l-0.6,0.8l-1.1-0.3c-0.6-0.2-2.3-0.6-3.7-0.9c-1.4-0.3-3.7-0.8-5.1-1.1
		c-5.7-1.2-6.5-1.4-7.6-1.1C206.6,650,206.4,650.5,206.6,651.1z M208.3,650.7c0.5,0,2.7,0.5,5,1c2.3,0.5,5,1.2,6.1,1.4
		c3.1,0.7,4.8,1.1,4.8,1.2c0,0-0.9,1.8-2,3.9l-2,3.9l-0.4-0.3c-0.8-0.6-2.8-2.3-4.6-3.9c-1-0.9-2.9-2.5-4.2-3.7
		c-2.2-1.9-3.6-3.3-3.5-3.5C207.5,650.7,207.9,650.7,208.3,650.7z M226.2,653.3c0.5-0.8,0.5-0.8,0.9-0.8c0.3,0,7.2,3.6,7.5,4
		c0.1,0.1-0.2,0.9-2.8,5.9c-1.6,3.2-3,6.1-3.2,6.4l-0.2,0.6l-3.7-1.9c-3.8-2-4.1-2.1-4.4-2.9c-0.1-0.3,0-0.5,2.6-5.4
		C224.5,656.4,225.9,653.8,226.2,653.3z M238,653.5c0.2-0.1,0.7-0.4,1.1-0.5c1.2-0.5,2.6-0.1,6.5,1.7l2.3,1.1l-6,11.9l-6,11.9
		l-2.6-1.4c-2.5-1.3-3.9-2.3-4.8-3.1c-0.6-0.6-0.4-2.1,0.6-4.4c0.3-0.8,2.4-5,4.6-9.2C237.2,654.6,237.6,653.8,238,653.5z
		 M238.3,678.9c1.6,0.5,7,2.7,9.4,3.8c3.2,1.6,3,1.7-0.3,0.2c-1.2-0.5-3.2-1.3-4.3-1.8c-1.1-0.4-2.7-1-3.4-1.3
		c-0.7-0.3-1.5-0.6-1.7-0.6c-0.3,0-0.3-0.1-0.2-0.3C237.9,678.8,238,678.8,238.3,678.9z M239.2,677.6c0.3,0.2,5.6,2.5,5.9,2.5
		c0.1,0,0.2,0.1,0.1,0.1c0,0.1-0.2,0.1-0.4,0c-0.5-0.1-5.8-2.3-6-2.4C238.7,677.6,238.9,677.4,239.2,677.6z M240.3,676.3
		c0.6,0.3,0.6,0.5,0.1,0.4c-0.5-0.1-0.8-0.3-0.7-0.5C239.8,676,239.9,676.1,240.3,676.3z M261.5,677.7c4.6-8.9,6-11.6,6.2-11.6
		c0.5,0,3.8,1.9,5.7,3.3c0.9,0.7,1.2,1,1.3,2l0.1,0.6l-3.7,7.7c-4.4,9.1-5.4,10.9-6.5,11.7c-1.1,0.8-2.4,0.8-4.6,0
		c-1.5-0.6-4.7-2-4.5-2.1C255.5,689.3,258.2,684.1,261.5,677.7z"/>
	<path class="st1" d="M216.5,657.9c0.5,0.5,2.3,1.8,3.1,2.4c0.4,0.3,0.6,0.4,0.6,0.3c0-0.1,0-0.1,0-0.2c0,0-0.9-0.7-1.9-1.5
		c-1-0.8-1.9-1.5-2-1.5C216,657.2,216.1,657.5,216.5,657.9z"/>
	<path class="st1" d="M222.3,664.9c0.7,0.5,4.9,2.4,5.3,2.4c0.2,0,0.4,0,0.5-0.1c0-0.1-0.4-0.3-1.5-0.8c-0.9-0.4-2.2-1-3-1.4
		c-1.1-0.5-1.5-0.6-1.6-0.5C221.9,664.5,222,664.7,222.3,664.9z"/>
	<path class="st1" d="M223.4,663.3c0.7,0.5,4.5,2.3,5.2,2.5c0.2,0.1,0.5,0.1,0.5,0c0.1-0.2-6-3.2-6.2-3
		C222.8,662.8,223,663,223.4,663.3z"/>
	<path class="st1" d="M224,660.9c0.3,0.3,5.5,2.8,5.7,2.7c0.4-0.1-0.3-0.5-3-1.9c-2.1-1-2.7-1.3-2.7-1.2
		C223.9,660.7,223.9,660.8,224,660.9z"/>
	<path class="st1" d="M225,658.8c0.1,0.1,1.2,0.7,2.6,1.3c2.2,1,3,1.3,3.1,1c0.1-0.1-5.3-2.6-5.5-2.6
		C224.9,658.5,224.9,658.7,225,658.8z"/>
	<path class="st1" d="M228.8,658c2.7,1.4,3.6,1.7,3.5,1.3c0-0.1-1.2-0.7-3-1.7c-2.7-1.3-3-1.5-3.1-1.3
		C226.1,656.6,226.3,656.7,228.8,658z"/>
	<path class="st1" d="M227.2,654.6c0.1,0.2,4.4,2.4,5.1,2.6c0.3,0.1,0.6,0.1,0.7,0c0.1-0.1-0.3-0.3-2.7-1.5
		C227.7,654.5,227.1,654.3,227.2,654.6z"/>
	<path class="st1" d="M238.9,655.9c0.2,0.1,0.5,0.2,0.6,0.2c0.2,0,0.1-0.1-0.3-0.3c-0.3-0.2-0.6-0.2-0.6-0.2
		C238.5,655.6,238.7,655.7,238.9,655.9z"/>
	<path class="st1" d="M239.9,654.6c0.2,0,0.9,0.2,2.6,1c1.3,0.6,2.3,1.1,2.3,1.1c0,0,0.1,0,0.1-0.1c0.1-0.1-4.1-2.2-4.7-2.3
		c-0.2,0-0.3,0-0.4,0.2C239.6,654.6,239.7,654.6,239.9,654.6z"/>
	<path class="st1" d="M269.5,669.1c0.8,0.4,3.4,2.1,4.1,2.8c0.3,0.2,0.4,0.1,0.2-0.2c-0.5-0.8-4.9-3.5-5.1-3.2
		C268.6,668.5,269,668.8,269.5,669.1z"/>
	<path class="st1" d="M259.4,689.8c0.2,0.2,2.1,0.9,3,1c0.7,0.1,1.7,0,1.6-0.2c0-0.1-0.2-0.1-0.5-0.1c-0.6,0.1-1.8-0.2-3-0.7
		C259.5,689.5,259.1,689.4,259.4,689.8z"/>
	<path class="st1" d="M271.8,671.6c0.2,0.1,0.4,0.2,0.4,0.1c0-0.1-0.2-0.2-0.4-0.3c-0.2-0.1-0.4-0.1-0.4-0.1
		C271.4,671.3,271.6,671.4,271.8,671.6z"/>
	<path class="st1" d="M263.1,689.5c0.2,0.1,0.6,0.1,0.6-0.1c0-0.1-0.6-0.2-0.7-0.1C262.9,689.4,263,689.4,263.1,689.5z"/>
	<path class="st1" d="M264.2,688.2c0.3,0.3,0.6,0.2,0.3,0c-0.3-0.3-0.5-0.4-0.5-0.3C264,687.9,264.1,688,264.2,688.2z"/>
</g>
<g class="st0">
	<path class="st1" d="M259,50.9c-2.2,1.2-2.6,1.4-2.7,1.6c-0.2,0.4,0,0.8,0.7,1.5c0.9,0.9,2.1,2.5,3.2,4.3c0.6,1,1.5,2.3,1.9,2.9
		c0.9,1.2,2.7,4.9,3.5,6.9c0.5,1.2,1.5,4.3,2,6c0.2,0.9,0.4,1.1,0.8,0.9c0.2-0.1,3.8-1.8,8-4l7.7-3.9l0.1-0.3l0.1-0.3l-0.5-0.5
		c-0.7-0.7-2.2-2.6-3.5-4.4c-3.1-4.4-6.2-11.2-7.2-15.6c-0.3-1.3-0.4-1.5-0.7-1.6c-0.1,0-1.6,0.6-4.6,2
		C263.1,48.8,263,48.8,259,50.9z M267.7,47.7c2.3-1.1,4.2-2,4.2-1.9c0,0,0.2,0.5,0.3,1c0.6,2.6,1.3,4.5,2.7,7.7c1.2,2.7,2,4,4,7.2
		c1.4,2.1,2.4,3.4,3.5,4.5l0.5,0.5l-2.3,1.1l-2.3,1.1l-0.2-0.5c-0.3-0.5-2.7-6-4.2-9.5c-2.5-5.8-3.2-6.9-4-7.4
		c-0.2-0.1-0.6-0.2-0.7-0.2c-0.8,0.2-5,2.5-5.3,2.9c-0.3,0.5-0.2,1.2,0.3,2.4c0.5,1.3,3.9,8,5.4,10.6c0.5,0.9,1.3,2.4,1.8,3.3
		l0.9,1.6l-1.9,1l-1.9,1l-0.1-0.2c-0.1-0.6-1.2-4.2-1.7-5.3c-0.8-2.2-2.1-5.1-2.9-6.5c-2.2-3.6-5.3-8-6.5-9
		c-0.1-0.1,0.4-0.3,2.1-1.2c1.2-0.6,2.6-1.3,3.2-1.7C263,49.9,265.4,48.8,267.7,47.7z M269.6,52.2c0.3,0.1,2.1,3.9,3.8,7.9
		c1,2.3,2.4,5.2,3,6.6l1.2,2.5l-1.2,0.6c-0.7,0.3-1.7,0.9-2.4,1.3c-0.9,0.5-1.2,0.6-1.2,0.5c0-0.1-0.9-1.9-2.1-4.1
		c-4.1-7.7-4.4-8.4-5.4-10.5c-0.5-1.2-1-2.2-1-2.3c0-0.1,0.6-0.4,2.5-1.3C268.3,52.7,269.5,52.2,269.6,52.2z"/>
	<path class="st1" d="M258.3,52.9c0,0,0.4,0.6,1,1.3c0.5,0.7,1.2,1.5,1.6,2c0.3,0.4,1,1.2,1.4,1.8c0.9,1.2,2.7,4.2,3.2,5.4
		c1,2.4,1.4,3.4,1.8,4.8c0.3,0.8,0.7,2,0.9,2.6c0.2,0.6,0.5,1.2,0.5,1.4c0.1,0.2,0.1,0.3,0.2,0.2c0.1-0.1-0.1-0.9-0.5-1.8
		c-0.3-0.8-0.9-2.7-1-2.9c0-0.1-0.3-0.8-0.6-1.7c-1.7-4.5-3.2-7.1-7-11.7C258.6,52.9,258.4,52.6,258.3,52.9z"/>
	<path class="st1" d="M280.2,65.2c0.1,0.1,0.3,0.3,0.6,0.5c0.6,0.6,0.8,0.5,0.2-0.1c-0.4-0.4-0.7-0.6-0.8-0.6
		C280.1,65,280.1,65.1,280.2,65.2z"/>
	<path class="st1" d="M280.2,66.3c0.1,0.2,0.5,0.6,0.6,0.5c0,0,0-0.1-0.1-0.2c-0.1-0.1-0.2-0.2-0.3-0.4C280.2,66,280,66,280.2,66.3z
		"/>
	<path class="st1" d="M269.9,71.7c0.1,0.1,0.2,0.2,0.2,0.2c0.1,0,0-0.1,0-0.2c0-0.1-0.1-0.2-0.2-0.2
		C269.9,71.5,269.9,71.6,269.9,71.7z"/>
	<path class="st1" d="M269.1,59.8c-0.4,0.5-0.5,1-0.4,1.5c0.2,0.8,0.9,1.3,1.8,1.2c0.6-0.1,1-0.4,1.3-1.1c0.4-1.1,0.1-1.8-0.9-2.2
		C270.1,58.9,269.6,59,269.1,59.8z M270.7,60.1c0.4,0.2,0.5,0.6,0.2,1c-0.3,0.5-0.5,0.5-0.9,0.4c-0.5-0.2-0.6-0.5-0.4-1
		C270,60,270.3,59.9,270.7,60.1z"/>
</g>
<g class="st0">
	<path class="st1" d="M238.3,277.4c-2.2,1.2-2.6,1.4-2.7,1.6c-0.2,0.4,0,0.8,0.7,1.5c0.9,0.9,2.1,2.5,3.2,4.3c0.6,1,1.5,2.3,1.9,2.9
		c0.9,1.2,2.7,4.9,3.5,6.9c0.5,1.2,1.5,4.4,2,6c0.2,0.9,0.4,1.1,0.8,0.9c0.2,0,3.8-1.8,8-4l7.7-3.9l0.1-0.3l0.1-0.3l-0.5-0.5
		c-0.7-0.7-2.2-2.6-3.5-4.4c-3.1-4.4-6.2-11.2-7.2-15.6c-0.3-1.3-0.4-1.5-0.7-1.6c-0.1,0-1.6,0.6-4.6,2
		C242.5,275.2,242.4,275.3,238.3,277.4z M247,274.1c2.3-1.1,4.2-2,4.2-1.9c0,0,0.2,0.5,0.3,1c0.6,2.6,1.3,4.5,2.7,7.7
		c1.2,2.7,2,4,4,7.2c1.4,2.1,2.4,3.4,3.5,4.5l0.5,0.5l-2.3,1.1l-2.3,1.1l-0.2-0.5c-0.3-0.5-2.7-6-4.2-9.5c-2.5-5.8-3.2-6.9-4-7.4
		c-0.2-0.1-0.6-0.2-0.7-0.2c-0.8,0.2-5,2.5-5.3,2.9c-0.3,0.5-0.2,1.2,0.3,2.4c0.5,1.3,3.9,8,5.4,10.6c0.5,0.9,1.3,2.4,1.8,3.3
		l0.9,1.6l-1.9,1l-1.9,1l-0.1-0.2c-0.1-0.5-1.2-4.1-1.7-5.3c-0.8-2.2-2.1-5.1-2.9-6.5c-2.2-3.6-5.3-8-6.5-9
		c-0.1-0.1,0.4-0.3,2.1-1.2c1.2-0.6,2.6-1.4,3.2-1.7C242.4,276.4,244.7,275.2,247,274.1z M248.9,278.7c0.3,0.1,2.1,3.9,3.8,7.9
		c1,2.3,2.4,5.2,3,6.6l1.2,2.5l-1.2,0.6c-0.7,0.3-1.7,0.9-2.4,1.3c-0.9,0.5-1.2,0.6-1.2,0.5c0-0.1-0.9-1.9-2.1-4.1
		c-4.1-7.6-4.4-8.4-5.4-10.5c-0.5-1.2-1-2.2-1-2.3c0-0.1,0.6-0.4,2.5-1.4C247.7,279.2,248.8,278.7,248.9,278.7z"/>
	<path class="st1" d="M237.7,279.4c0,0,0.4,0.6,1,1.3c0.6,0.6,1.2,1.5,1.6,2s0.9,1.2,1.4,1.9c0.9,1.2,2.7,4.2,3.2,5.4
		c1,2.4,1.4,3.4,1.8,4.8c0.3,0.8,0.7,2,0.9,2.6c0.2,0.6,0.4,1.2,0.5,1.4c0.1,0.2,0.1,0.3,0.2,0.2c0.1-0.1-0.1-0.9-0.5-1.8
		c-0.3-0.8-0.9-2.7-1-2.9c0-0.1-0.3-0.9-0.6-1.7c-1.7-4.5-3.2-7.1-7-11.7C237.9,279.3,237.7,279.1,237.7,279.4z"/>
	<path class="st1" d="M259.5,291.7c0.1,0.1,0.3,0.3,0.6,0.5c0.6,0.6,0.8,0.5,0.2-0.1c-0.4-0.4-0.7-0.6-0.8-0.6
		C259.4,291.5,259.5,291.6,259.5,291.7z"/>
	<path class="st1" d="M259.5,292.8c0.1,0.2,0.5,0.6,0.6,0.5c0,0,0-0.1-0.1-0.2c-0.1-0.1-0.2-0.2-0.3-0.4
		C259.6,292.4,259.4,292.5,259.5,292.8z"/>
	<path class="st1" d="M249.3,298.2c0.1,0.1,0.2,0.2,0.2,0.2c0.1,0,0.1-0.1,0-0.2s-0.1-0.2-0.2-0.2
		C249.2,297.9,249.2,298,249.3,298.2z"/>
	<path class="st1" d="M248.4,286.2c-0.4,0.5-0.5,1-0.4,1.5c0.2,0.8,0.9,1.3,1.8,1.2c0.6-0.1,1.1-0.4,1.3-1.1
		c0.4-1.1,0.1-1.8-0.9-2.2C249.5,285.4,248.9,285.5,248.4,286.2z M250.1,286.6c0.4,0.2,0.5,0.6,0.2,1c-0.3,0.5-0.5,0.5-0.9,0.4
		c-0.5-0.2-0.6-0.5-0.4-1C249.3,286.5,249.6,286.4,250.1,286.6z"/>
</g>
<g class="st0">
	<path class="st1" d="M48.3,160.5c-3-0.5-5.4-0.2-8.1,1.1c-2,0.9-3.4,2-4.7,3.5l-0.4,0.5l-1.5-0.5c-0.8-0.3-1.7-0.5-1.8-0.5
		c-0.2,0-0.4,0.1-0.7,0.3c-0.4,0.3-0.5,0.5-0.8,1.4c-0.5,1.3-0.5,1.7,0,2.1c0.2,0.2,0.5,0.4,0.8,0.5c0.5,0.2,1.8,0.9,1.8,1
		c0,0.1-0.1,0.5-0.2,1.1c-0.4,1.9-0.3,4.1,0.2,6c0.2,0.8,0.2,0.8,0,0.9c-0.1,0-0.9,0.3-1.7,0.7c-0.8,0.3-1.8,0.8-2.3,0.9
		c-1.1,0.4-1.2,0.5-1.9,1.1c-0.5,0.4-0.5,0.5-0.7,1.2c-0.3,1.2,0.1,1.9,1.2,2c0.9,0.1,2-0.2,4.8-1.5l2.5-1.1l0.7,0.9
		c2,2.4,5,4.2,7.9,4.8c3,0.6,5.5,0.2,8.3-1c2.6-1.2,4.6-3,6-5.4c0.3-0.5,0.6-0.9,0.6-0.9c0.3-0.1,3,0.9,5.8,2.1l3,1.3l-0.3,1.3
		c-1.2,5.8,1.2,11.3,6.2,14.5c1,0.6,3.1,1.5,4.3,1.7c1.3,0.3,2.7,0.3,3.8,0.2c0.5,0,0.9-0.1,1-0.1c0.1,0,0.3,0.6,0.6,1.2
		c1,2.1,2,3.2,3,3.2c0.6,0,1-0.3,1.4-1.1c0.3-0.6,0.3-0.7,0.2-1.4c-0.2-1-0.1-0.9-1.3-3c0-0.1,0.2-0.3,0.6-0.5
		c1.5-0.8,3.2-2.3,4.3-3.8c0.6-0.9,1.7-2.8,1.7-3.1c0-0.1,0.1-0.2,0.2-0.3c0.1,0,0.8,0,1.5,0.2c0.8,0.1,1.4,0.2,1.5,0.1
		c0.4-0.3,0.8-1,1-2.2l0.2-1.1l-0.3-0.3c-0.2-0.2-0.6-0.4-0.8-0.6c-0.3-0.2-1-0.5-1.4-0.8l-0.9-0.5l-0.1-0.9c-0.2-2.5-1.5-5.1-3.3-7
		c-1.5-1.6-3.4-3-5.3-3.8c-3.2-1.4-6.9-1.3-10.2,0.2l-1.1,0.5l-0.4-0.7c-1.3-2.4-2.5-3.4-5-4.4c-1.4-0.6-1.6-0.6-2.8-0.8
		c-2.2-0.3-4.3-0.1-5.7,0.5l-0.6,0.2l-0.1-0.3c-0.2-0.6-1-2.5-1.6-3.3c-1-1.5-2.8-3.2-4.6-4.4C51.6,161.6,49.4,160.7,48.3,160.5z
		 M46.2,160.9c-0.3,0.1-0.4,0.1-0.4-0.1c0-0.1,0.2-0.2,0.4-0.1C46.4,160.8,46.4,160.8,46.2,160.9z M45,160.9c0,0-0.5,0.1-1.2,0.2
		c-1.8,0.3-3.8,0.9-4.7,1.7c-0.3,0.2-0.4,0.3-0.4,0.2c0.1-0.3,0.6-0.6,1.7-1.1c1.5-0.6,2.1-0.8,3.3-0.9
		C44.7,160.8,45.1,160.8,45,160.9z M52.4,164.2c2.6,1.6,4.5,4.9,5,8.6c0.1,0.8,0.1,2.3,0,2.4c-0.1,0-7.1-2.8-8.8-3.5
		c-0.8-0.4-2.5-1-3.7-1.5c-1.2-0.5-2.8-1.1-3.6-1.5c-0.8-0.4-2-0.9-2.7-1.2l-1.3-0.6l0.1-0.2c0.2-0.3,1.4-1.5,2.1-2.1
		c0.8-0.6,2.3-1.4,3.3-1.7c1.5-0.5,3.8-0.6,5.4-0.4C49.3,162.8,51.3,163.5,52.4,164.2z M86.3,177.6c1.9,1.2,3.6,3.5,4.4,6
		c0.3,1,0.6,2.6,0.5,2.6c0,0-0.9-0.2-2-0.6c-4.3-1.3-5.3-1.6-5.5-1.6c-0.1,0-1.4-0.4-3-0.9c-1.6-0.5-3.6-1.2-4.5-1.4
		c-0.9-0.3-2.4-0.7-3.4-1l-1.8-0.6l0.3-0.4c0.5-0.6,1.7-1.7,2.4-2.1c0.8-0.5,2.4-1.2,3.3-1.4c1.5-0.4,3.4-0.4,4.8-0.2
		C83.3,176.2,85.3,177,86.3,177.6z M77.4,174.5c-0.1,0-0.6,0.1-1.1,0.3c-0.5,0.1-1.3,0.4-1.7,0.5c-0.8,0.4-1.1,0.3-0.2-0.1
		c0.6-0.3,2.8-0.9,3.1-0.8C77.5,174.4,77.5,174.4,77.4,174.5z M62.6,169.9c0,0.1-0.3,0.1-0.7,0.2c-0.3,0.1-0.8,0.1-1.1,0.2
		c-0.5,0.1-0.7,0-0.3-0.1c0.2-0.1,1.9-0.4,2-0.4C62.7,169.8,62.6,169.9,62.6,169.9z M68.3,173.2c1.1,0.6,1.9,1.5,2.8,3l0.2,0.4
		l-0.8,0.8c-0.4,0.4-1,1.1-1.3,1.4l-0.5,0.6l-3.3-1c-2.6-0.8-3.6-1.1-4.8-1.6l-1.5-0.7l0.1-1.1c0-0.6,0.1-1.4,0.1-1.7l0-0.6l0.3-0.1
		c0.2-0.1,0.7-0.2,1.3-0.3c2.2-0.6,3.7-0.5,5.4,0.1C66.9,172.5,67.8,172.9,68.3,173.2z M44.3,170.6c0.2,0.1,0.4,0.2,0.4,0.3
		c-0.1,0.1-7.6-2.7-7.5-2.8C37.2,168,43.5,170.2,44.3,170.6z M51.9,174.2c-0.1,0-0.3-0.1-0.4-0.1c-0.1-0.1,0-0.1,0.2,0
		C51.9,174.1,52,174.2,51.9,174.2z M49.7,173.6c-1.8-0.4-2.2-0.4-3.4-0.3c-0.5,0-1,0-1,0c0-0.1,0.1-0.1,0.1-0.1c0.1,0,0.4,0,0.8-0.1
		c0.8-0.2,1.3-0.1,2.9,0.2C51,173.8,51.3,174,49.7,173.6z M77.7,184.8c0,0,0,0.1-0.1,0.1c-0.1,0-0.2-0.1-0.4-0.2l-0.3-0.3l0.3,0.2
		C77.5,184.7,77.7,184.8,77.7,184.8z M39.1,171.5c1,0.4,2.6,1.1,3.6,1.5l1.7,0.7l-0.6,0.2c-0.3,0.1-1.2,0.5-1.9,0.8
		c-0.7,0.3-1.6,0.6-2.1,0.8c-1.2,0.4-2.1,0.7-3.3,1.2c-0.6,0.2-1.1,0.4-1.1,0.4c-0.1,0-0.4-1.3-0.4-2.1c-0.1-1,0-2.5,0.2-3.6
		c0.1-0.6,0.3-1.1,0.3-1.1C35.5,170.1,36.3,170.3,39.1,171.5z M89.1,189.6c0.8,0.3,1.3,0.5,1.6,0.5l0.4,0l-0.5,1.2
		c-1,2.4-2.9,4.5-5.1,5.7l-0.6,0.3l-0.7-1.1c-0.4-0.6-1.1-1.8-1.5-2.6c-0.9-1.7-1.3-2.5-2-3.5c-0.3-0.4-0.8-1.3-1.1-1.9
		c-0.4-0.7-0.8-1.5-1-1.8l-0.3-0.6l1.7,0.6c1,0.3,2.4,0.8,3.3,1C84.8,187.9,86.8,188.7,89.1,189.6z M56,179c-0.2,0.4-1.3,2-2,2.7
		c-2.5,2.5-5.7,3.6-9.2,3.3c-0.8-0.1-1.2-0.2-2.6-0.7c-1.4-0.5-1.8-0.7-2.5-1.2c-0.9-0.6-2-1.6-2.5-2.4l-0.3-0.5l0.6-0.4
		c0.3-0.2,1.4-0.7,2.4-1.1c1-0.4,2.4-1,3.2-1.3c1.4-0.6,2.6-1,3.2-1.1c0.5-0.1,3.6,0.6,5.5,1.1c0.8,0.2,1.6,0.4,1.7,0.4
		c0.1,0,0.7,0.2,1.5,0.5C55.8,178.8,56.1,178.9,56,179z M70.6,184.4c1.3,0.6,4.1,2.1,4.4,2.4c0.4,0.5,1.1,1.6,1.8,2.9
		c0.4,0.7,1,2,1.4,2.8c0.8,1.4,2.8,5.9,2.7,5.9c-0.2,0.1-1.7,0-2.3,0c-1.2-0.1-3.8-1.1-4.9-1.8c-2-1.4-3.6-3.5-4.3-5.9
		c-0.6-1.9-0.7-4-0.3-5.7c0.3-1.2,0.3-1.2,0.6-1.1C69.7,184,70.2,184.2,70.6,184.4z"/>
	<path class="st1" d="M42.9,163.8c-1,0.2-2.8,1.1-3.5,1.6c-0.6,0.5-0.8,0.7-0.7,0.8c0,0,0.4-0.2,0.7-0.5c0.8-0.6,2.4-1.4,3.5-1.7
		c0.8-0.2,1-0.3,0.8-0.4C43.7,163.6,43.3,163.7,42.9,163.8z"/>
	<path class="st1" d="M77.3,177.1c-1.4,0.3-4.3,1.8-4.5,2.2c-0.1,0.3,0.1,0.3,0.3,0.1c0.5-0.6,3.5-1.9,4.9-2.2
		c0.3-0.1,0.5-0.2,0.4-0.2C78.3,176.9,77.8,176.9,77.3,177.1z"/>
	<path class="st1" d="M88.4,191.7c-0.6,0.9-2.2,2.9-2.7,3.3c-0.3,0.2-0.5,0.5-0.5,0.5c0,0,0.2-0.1,0.5-0.2c0.5-0.3,1.5-1.4,2.5-2.8
		c0.8-1.1,0.9-1.2,0.7-1.3C88.8,191.2,88.6,191.3,88.4,191.7z"/>
	<path class="st1" d="M86,193.3c-0.1,0.2-0.2,0.4-0.3,0.4c-0.3,0.2-0.4,0.4-0.1,0.3c0.3-0.1,0.7-0.6,0.7-0.8
		C86.3,193,86.1,193,86,193.3z"/>
	<path class="st1" d="M53.3,180.5c-0.1,0.3-2.4,1.5-4,2.1c-1.6,0.6-2.8,0.8-4.3,0.6c-1.9-0.2-1.8,0,0.1,0.3c1.7,0.2,3-0.1,5.1-1
		c1.7-0.7,3.2-1.6,3.3-1.9c0-0.1,0-0.3,0-0.3C53.4,180.3,53.3,180.3,53.3,180.5z"/>
	<path class="st1" d="M41.5,182c0,0.1,0.2,0.2,0.5,0.3s0.6,0.1,0.6,0.1c0-0.1-0.2-0.2-0.5-0.3C41.8,182,41.5,181.9,41.5,182z"/>
	<path class="st1" d="M75.2,196c0,0.2,1.2,0.8,2.4,1.2c0.7,0.2,0.3-0.1-0.6-0.5c-0.5-0.2-1.1-0.5-1.4-0.6
		C75.3,195.9,75.2,195.9,75.2,196z"/>
</g>
<g class="st0">
	<path class="st1" d="M336.5,505.3c-2.8,1.2-4.6,2.8-6.2,5.4c-1.1,1.8-1.7,3.6-2,5.5l-0.1,0.7l-1.5,0.5c-0.9,0.3-1.7,0.5-1.8,0.6
		c-0.2,0.1-0.3,0.3-0.4,0.7c-0.1,0.5-0.1,0.6,0.1,1.6c0.3,1.3,0.5,1.7,1.1,1.7c0.3,0,0.6,0,0.9,0c0.5-0.1,2-0.2,2.1-0.2
		c0,0,0.2,0.5,0.5,1c0.7,1.8,2,3.6,3.5,4.9c0.6,0.6,0.6,0.6,0.4,0.7c-0.1,0.1-0.6,0.8-1,1.5c-0.5,0.7-1.1,1.6-1.4,2
		c-0.7,0.9-0.7,1.1-1,1.9c-0.2,0.6-0.2,0.7,0,1.4c0.4,1.2,1.1,1.5,2.1,1c0.8-0.4,1.6-1.3,3.2-3.8l1.5-2.3l1,0.3
		c3,0.9,6.5,0.8,9.2-0.4c2.8-1.2,4.7-2.8,6.3-5.4c1.5-2.4,2.2-5,2-7.8c0-0.6,0-1.1,0-1.1c0.2-0.2,3-0.9,6-1.5l3.2-0.6l0.5,1.2
		c2.1,5.5,7.2,8.8,13.2,8.7c1.2,0,3.4-0.5,4.5-1c1.3-0.5,2.5-1.2,3.3-1.9c0.4-0.3,0.7-0.6,0.8-0.6c0.1,0,0.6,0.3,1.2,0.6
		c1.9,1.2,3.4,1.5,4.2,1c0.5-0.3,0.7-0.8,0.5-1.7c-0.1-0.7-0.2-0.8-0.6-1.2c-0.7-0.7-0.6-0.7-2.8-1.8c-0.1,0,0.1-0.4,0.3-0.7
		c0.8-1.5,1.4-3.7,1.5-5.5c0.1-1.1-0.1-3.2-0.3-3.6c-0.1-0.1-0.1-0.3,0-0.3c0.1-0.1,0.7-0.4,1.3-0.7c0.8-0.3,1.3-0.6,1.3-0.7
		c0.2-0.5,0.1-1.3-0.4-2.4l-0.5-1.1l-0.4-0.1c-0.2-0.1-0.7-0.1-1,0c-0.3,0-1.1,0.1-1.7,0.1l-1.1,0.1l-0.5-0.7c-1.6-1.9-4-3.4-6.6-4
		c-2.1-0.5-4.5-0.6-6.5-0.3c-3.4,0.6-6.5,2.7-8.4,5.7l-0.7,1l-0.7-0.4c-2.4-1.3-3.9-1.5-6.6-0.9c-1.5,0.3-1.7,0.4-2.7,0.9
		c-2,1-3.6,2.3-4.5,3.6l-0.4,0.5l-0.2-0.2c-0.5-0.4-2.2-1.5-3.1-1.9c-1.7-0.7-4.1-1.2-6.3-1.1C339.9,504.4,337.6,504.9,336.5,505.3z
		 M335,506.8c-0.2,0.2-0.3,0.3-0.4,0.2c0-0.1,0.1-0.3,0.3-0.3C335.1,506.6,335.1,506.6,335,506.8z M334.1,507.4c0,0-0.4,0.4-0.9,0.8
		c-1.4,1.2-2.6,2.9-3,4c-0.1,0.3-0.2,0.5-0.2,0.4c-0.1-0.3,0.2-0.9,0.8-1.9c0.9-1.4,1.3-1.8,2.2-2.6
		C333.7,507.5,334.1,507.3,334.1,507.4z M342,506.1c3-0.1,6.5,1.6,8.9,4.5c0.5,0.6,1.3,1.9,1.3,2c-0.1,0.1-7.4,1.6-9.3,1.9
		c-0.9,0.2-2.7,0.5-3.9,0.8c-1.3,0.3-3,0.6-3.8,0.7c-0.9,0.1-2.2,0.3-3,0.5l-1.4,0.3l0-0.3c-0.1-0.4,0.3-2,0.6-2.9
		c0.3-0.9,1.2-2.4,1.9-3.2c1-1.3,2.8-2.6,4.3-3.3C338.7,506.7,340.8,506.2,342,506.1z M377.7,498.6c2.3-0.1,4.9,0.9,7,2.6
		c0.8,0.7,1.9,1.8,1.9,1.9c0,0-0.9,0.3-2,0.6c-4.3,1.3-5.3,1.6-5.4,1.7c0,0.1-1.4,0.5-3,0.9c-1.6,0.4-3.6,1-4.5,1.3
		c-0.9,0.3-2.4,0.7-3.4,1l-1.8,0.5l0.1-0.5c0.1-0.8,0.5-2.3,0.9-3.1c0.4-0.9,1.4-2.4,2-3c1.1-1.2,2.6-2.3,3.9-2.8
		C374.4,499.2,376.5,498.7,377.7,498.6z M368.6,500.9c-0.1,0.1-0.4,0.4-0.8,0.9c-0.4,0.4-0.9,1-1.1,1.4c-0.5,0.8-0.7,0.8-0.3,0
		C366.8,502.6,368.3,500.9,368.6,500.9C368.6,500.8,368.7,500.9,368.6,500.9z M353.7,505.3c0,0.1-0.2,0.3-0.4,0.5
		c-0.3,0.2-0.6,0.6-0.8,0.8c-0.4,0.4-0.6,0.4-0.3,0c0.1-0.2,1.4-1.4,1.5-1.4C353.7,505.2,353.7,505.2,353.7,505.3z M360.2,504.9
		c1.2-0.1,2.4,0.2,4,1l0.4,0.2l-0.2,1.1c-0.1,0.6-0.3,1.5-0.3,1.8l-0.1,0.7l-3.3,1c-2.6,0.8-3.6,1.1-4.9,1.3l-1.7,0.3l-0.5-1
		c-0.3-0.5-0.7-1.2-0.9-1.5l-0.4-0.5l0.2-0.2c0.1-0.1,0.5-0.6,0.9-1c1.6-1.7,2.8-2.5,4.6-2.9C358.7,505.1,359.7,504.9,360.2,504.9z
		 M338.8,515.9c0.3,0,0.5,0,0.5,0c-0.1,0.1-7.8,1.9-7.9,1.8C331.4,517.7,338,516,338.8,515.9z M347.1,514.7c-0.1,0-0.3,0.1-0.4,0.1
		c-0.1,0-0.1,0,0.2-0.1C347.1,514.7,347.2,514.7,347.1,514.7z M345,515.5c-1.8,0.7-2.1,0.8-3,1.6c-0.4,0.3-0.8,0.6-0.8,0.5
		c0-0.1,0-0.1,0.1-0.1c0.1,0,0.3-0.2,0.6-0.5c0.6-0.6,1.1-0.9,2.5-1.4C346.1,515,346.5,514.9,345,515.5z M374.5,509.4
		c0,0,0,0.1,0,0.1c0,0-0.2,0-0.4,0l-0.4-0.1l0.4,0C374.3,509.4,374.5,509.4,374.5,509.4z M335,519.5c1.1-0.2,2.8-0.5,3.8-0.7
		l1.8-0.4l-0.4,0.6c-0.2,0.3-0.8,1.1-1.2,1.7c-0.4,0.6-1,1.4-1.3,1.8c-0.8,0.9-1.3,1.7-2.1,2.8c-0.4,0.5-0.7,1-0.7,1
		c-0.1,0-1-0.9-1.5-1.5c-0.7-0.8-1.4-2.1-1.8-3.1c-0.2-0.5-0.3-1-0.3-1.1C331.2,520.3,332,520.1,335,519.5z M386.7,507.2
		c0.9-0.2,1.4-0.3,1.6-0.4l0.3-0.2l0.2,1.3c0.5,2.6,0.1,5.4-1.1,7.6l-0.3,0.6l-1.2-0.5c-0.7-0.3-1.9-0.9-2.7-1.3
		c-1.7-0.9-2.5-1.3-3.6-1.8c-0.4-0.2-1.3-0.6-2-1c-0.7-0.4-1.5-0.8-1.8-1l-0.6-0.3l1.7-0.5c1-0.3,2.5-0.7,3.3-1
		C382.2,508.1,384.3,507.6,386.7,507.2z M353.2,516.5c0.1,0.4,0,2.4-0.2,3.3c-0.7,3.5-2.7,6.1-5.9,7.9c-0.7,0.4-1.1,0.5-2.6,0.9
		c-1.5,0.4-1.9,0.4-2.7,0.4c-1.1,0-2.6-0.3-3.4-0.6l-0.6-0.2l0.3-0.6c0.2-0.3,0.8-1.3,1.4-2.2c0.6-0.9,1.5-2.2,1.9-2.8
		c0.8-1.3,1.6-2.3,2.1-2.7c0.3-0.3,3.3-1.5,5.2-2.1c0.8-0.3,1.5-0.5,1.6-0.5c0.1,0,0.7-0.2,1.5-0.4
		C352.9,516.4,353.2,516.4,353.2,516.5z M368.4,513c1.4-0.2,4.6-0.5,5-0.4c0.6,0.1,1.8,0.7,3.1,1.5c0.7,0.4,1.9,1.1,2.7,1.5
		c1.4,0.7,5.6,3.4,5.5,3.4c-0.1,0.1-1.4,0.9-2,1.3c-1.1,0.6-3.8,1.2-5.1,1.2c-2.4,0-5-1-6.9-2.5c-1.6-1.3-2.8-3-3.4-4.6
		c-0.4-1.2-0.5-1.2-0.1-1.2C367.4,513.1,367.9,513.1,368.4,513z"/>
	<path class="st1" d="M333.9,511.1c-0.7,0.8-1.8,2.5-2,3.3c-0.2,0.8-0.3,1.1-0.1,1c0.1,0,0.2-0.4,0.3-0.8c0.3-0.9,1.2-2.5,2-3.4
		c0.5-0.6,0.7-0.8,0.5-0.8C334.5,510.5,334.2,510.7,333.9,511.1z"/>
	<path class="st1" d="M369.9,503.2c-1,1-2.6,3.9-2.5,4.3c0.1,0.3,0.2,0.2,0.3-0.1c0.1-0.8,1.8-3.5,2.9-4.5c0.3-0.3,0.3-0.5,0.2-0.4
		C370.7,502.4,370.3,502.8,369.9,503.2z"/>
	<path class="st1" d="M387.2,509.3c0,1.1-0.2,3.6-0.4,4.3c-0.1,0.3-0.2,0.7-0.1,0.7c0,0,0.1-0.2,0.3-0.4c0.3-0.5,0.5-2,0.5-3.7
		c0.1-1.3,0-1.5-0.2-1.5C387.3,508.6,387.2,508.9,387.2,509.3z"/>
	<path class="st1" d="M386.1,511.9c0,0.2,0,0.4,0,0.5c-0.2,0.4-0.1,0.6,0.1,0.3c0.2-0.3,0.3-0.9,0.2-1
		C386.2,511.5,386,511.6,386.1,511.9z"/>
	<path class="st1" d="M351.7,519.2c0.1,0.3-1.2,2.6-2.2,3.9c-1,1.4-1.9,2.2-3.3,2.9c-1.7,0.9-1.5,1,0.3,0.1c1.5-0.8,2.5-1.7,3.7-3.6
		c1-1.6,1.8-3.1,1.7-3.4c0-0.1-0.1-0.2-0.2-0.2C351.7,519,351.7,519.1,351.7,519.2z"/>
	<path class="st1" d="M342.7,527c0,0.1,0.3,0,0.6,0c0.3-0.1,0.6-0.2,0.5-0.2c0-0.1-0.3,0-0.6,0C343,526.8,342.7,526.9,342.7,527z"/>
	<path class="st1" d="M378.6,520.1c0.1,0.2,1.5,0,2.7-0.3c0.7-0.2,0.2-0.2-0.7-0.1c-0.5,0.1-1.2,0.2-1.5,0.2
		C378.6,520,378.5,520,378.6,520.1z"/>
</g>
</svg>
