<?xml version="1.0" encoding="utf-8"?>
<!-- Generator: Adobe Illustrator 27.4.0, SVG Export Plug-In . SVG Version: 6.00 Build 0)  -->
<svg version="1.1" id="Layer_1" xmlns="http://www.w3.org/2000/svg" xmlns:xlink="http://www.w3.org/1999/xlink" x="0px" y="0px"
	 viewBox="0 0 512.4 838.3" style="enable-background:new 0 0 512.4 838.3;" xml:space="preserve">
<style type="text/css">
	.st0{opacity:0.6;clip-path:url(#SVGID_00000062177198433292781910000003989117500197420215_);}
	.st1{opacity:0.3;}
	.st2{fill-rule:evenodd;clip-rule:evenodd;fill:#2C2C2C;}
</style>
<g>
	<defs>
		<rect id="SVGID_1_" width="512.4" height="841.6"/>
	</defs>
	<clipPath id="SVGID_00000119822125991372993670000006917432259764913050_">
		<use xlink:href="#SVGID_1_"  style="overflow:visible;"/>
	</clipPath>
	<g style="opacity:0.6;clip-path:url(#SVGID_00000119822125991372993670000006917432259764913050_);">
		<image style="overflow:visible;" width="72" height="72" xlink:href="002-subtle-light-pattern.jpg" >
		</image>
		
			<image style="overflow:visible;" width="72" height="72" xlink:href="002-subtle-light-pattern.jpg"  transform="matrix(1 0 0 1 71.0764 0)">
		</image>
		
			<image style="overflow:visible;" width="72" height="72" xlink:href="002-subtle-light-pattern.jpg"  transform="matrix(1 0 0 1 142.1528 0)">
		</image>
		
			<image style="overflow:visible;" width="72" height="72" xlink:href="002-subtle-light-pattern.jpg"  transform="matrix(1 0 0 1 213.2293 0)">
		</image>
		
			<image style="overflow:visible;" width="72" height="72" xlink:href="002-subtle-light-pattern.jpg"  transform="matrix(1 0 0 1 284.3057 0)">
		</image>
		
			<image style="overflow:visible;" width="72" height="72" xlink:href="002-subtle-light-pattern.jpg"  transform="matrix(1 0 0 1 355.3821 0)">
		</image>
		
			<image style="overflow:visible;" width="72" height="72" xlink:href="002-subtle-light-pattern.jpg"  transform="matrix(1 0 0 1 426.4585 0)">
		</image>
		
			<image style="overflow:visible;" width="72" height="72" xlink:href="002-subtle-light-pattern.jpg"  transform="matrix(1 0 0 1 497.5349 0)">
		</image>
	</g>
	<g style="opacity:0.6;clip-path:url(#SVGID_00000119822125991372993670000006917432259764913050_);">
		
			<image style="overflow:visible;" width="72" height="72" xlink:href="002-subtle-light-pattern.jpg"  transform="matrix(1 0 0 1 0 72)">
		</image>
		
			<image style="overflow:visible;" width="72" height="72" xlink:href="002-subtle-light-pattern.jpg"  transform="matrix(1 0 0 1 71.0764 72)">
		</image>
		
			<image style="overflow:visible;" width="72" height="72" xlink:href="002-subtle-light-pattern.jpg"  transform="matrix(1 0 0 1 142.1528 72)">
		</image>
		
			<image style="overflow:visible;" width="72" height="72" xlink:href="002-subtle-light-pattern.jpg"  transform="matrix(1 0 0 1 213.2293 72)">
		</image>
		
			<image style="overflow:visible;" width="72" height="72" xlink:href="002-subtle-light-pattern.jpg"  transform="matrix(1 0 0 1 284.3057 72)">
		</image>
		
			<image style="overflow:visible;" width="72" height="72" xlink:href="002-subtle-light-pattern.jpg"  transform="matrix(1 0 0 1 355.3821 72)">
		</image>
		
			<image style="overflow:visible;" width="72" height="72" xlink:href="002-subtle-light-pattern.jpg"  transform="matrix(1 0 0 1 426.4585 72)">
		</image>
		
			<image style="overflow:visible;" width="72" height="72" xlink:href="002-subtle-light-pattern.jpg"  transform="matrix(1 0 0 1 497.5349 72)">
		</image>
	</g>
	<g style="opacity:0.6;clip-path:url(#SVGID_00000119822125991372993670000006917432259764913050_);">
		
			<image style="overflow:visible;" width="72" height="72" xlink:href="002-subtle-light-pattern.jpg"  transform="matrix(1 0 0 1 0 144)">
		</image>
		
			<image style="overflow:visible;" width="72" height="72" xlink:href="002-subtle-light-pattern.jpg"  transform="matrix(1 0 0 1 71.0764 144)">
		</image>
		
			<image style="overflow:visible;" width="72" height="72" xlink:href="002-subtle-light-pattern.jpg"  transform="matrix(1 0 0 1 142.1528 144)">
		</image>
		
			<image style="overflow:visible;" width="72" height="72" xlink:href="002-subtle-light-pattern.jpg"  transform="matrix(1 0 0 1 213.2293 144)">
		</image>
		
			<image style="overflow:visible;" width="72" height="72" xlink:href="002-subtle-light-pattern.jpg"  transform="matrix(1 0 0 1 284.3057 144)">
		</image>
		
			<image style="overflow:visible;" width="72" height="72" xlink:href="002-subtle-light-pattern.jpg"  transform="matrix(1 0 0 1 355.3821 144)">
		</image>
		
			<image style="overflow:visible;" width="72" height="72" xlink:href="002-subtle-light-pattern.jpg"  transform="matrix(1 0 0 1 426.4585 144)">
		</image>
		
			<image style="overflow:visible;" width="72" height="72" xlink:href="002-subtle-light-pattern.jpg"  transform="matrix(1 0 0 1 497.5349 144)">
		</image>
	</g>
	<g style="opacity:0.6;clip-path:url(#SVGID_00000119822125991372993670000006917432259764913050_);">
		
			<image style="overflow:visible;" width="72" height="72" xlink:href="002-subtle-light-pattern.jpg"  transform="matrix(1 0 0 1 0 216)">
		</image>
		
			<image style="overflow:visible;" width="72" height="72" xlink:href="002-subtle-light-pattern.jpg"  transform="matrix(1 0 0 1 71.0764 216)">
		</image>
		
			<image style="overflow:visible;" width="72" height="72" xlink:href="002-subtle-light-pattern.jpg"  transform="matrix(1 0 0 1 142.1528 216)">
		</image>
		
			<image style="overflow:visible;" width="72" height="72" xlink:href="002-subtle-light-pattern.jpg"  transform="matrix(1 0 0 1 213.2293 216)">
		</image>
		
			<image style="overflow:visible;" width="72" height="72" xlink:href="002-subtle-light-pattern.jpg"  transform="matrix(1 0 0 1 284.3057 216)">
		</image>
		
			<image style="overflow:visible;" width="72" height="72" xlink:href="002-subtle-light-pattern.jpg"  transform="matrix(1 0 0 1 355.3821 216)">
		</image>
		
			<image style="overflow:visible;" width="72" height="72" xlink:href="002-subtle-light-pattern.jpg"  transform="matrix(1 0 0 1 426.4585 216)">
		</image>
		
			<image style="overflow:visible;" width="72" height="72" xlink:href="002-subtle-light-pattern.jpg"  transform="matrix(1 0 0 1 497.5349 216)">
		</image>
	</g>
	<g style="opacity:0.6;clip-path:url(#SVGID_00000119822125991372993670000006917432259764913050_);">
		
			<image style="overflow:visible;" width="72" height="72" xlink:href="002-subtle-light-pattern.jpg"  transform="matrix(1 0 0 1 0 288)">
		</image>
		
			<image style="overflow:visible;" width="72" height="72" xlink:href="002-subtle-light-pattern.jpg"  transform="matrix(1 0 0 1 71.0764 288)">
		</image>
		
			<image style="overflow:visible;" width="72" height="72" xlink:href="002-subtle-light-pattern.jpg"  transform="matrix(1 0 0 1 142.1528 288)">
		</image>
		
			<image style="overflow:visible;" width="72" height="72" xlink:href="002-subtle-light-pattern.jpg"  transform="matrix(1 0 0 1 213.2293 288)">
		</image>
		
			<image style="overflow:visible;" width="72" height="72" xlink:href="002-subtle-light-pattern.jpg"  transform="matrix(1 0 0 1 284.3057 288)">
		</image>
		
			<image style="overflow:visible;" width="72" height="72" xlink:href="002-subtle-light-pattern.jpg"  transform="matrix(1 0 0 1 355.3821 288)">
		</image>
		
			<image style="overflow:visible;" width="72" height="72" xlink:href="002-subtle-light-pattern.jpg"  transform="matrix(1 0 0 1 426.4585 288)">
		</image>
		
			<image style="overflow:visible;" width="72" height="72" xlink:href="002-subtle-light-pattern.jpg"  transform="matrix(1 0 0 1 497.5349 288)">
		</image>
	</g>
	<g style="opacity:0.6;clip-path:url(#SVGID_00000119822125991372993670000006917432259764913050_);">
		
			<image style="overflow:visible;" width="72" height="72" xlink:href="002-subtle-light-pattern.jpg"  transform="matrix(1 0 0 1 0 360)">
		</image>
		
			<image style="overflow:visible;" width="72" height="72" xlink:href="002-subtle-light-pattern.jpg"  transform="matrix(1 0 0 1 71.0764 360)">
		</image>
		
			<image style="overflow:visible;" width="72" height="72" xlink:href="002-subtle-light-pattern.jpg"  transform="matrix(1 0 0 1 142.1528 360)">
		</image>
		
			<image style="overflow:visible;" width="72" height="72" xlink:href="002-subtle-light-pattern.jpg"  transform="matrix(1 0 0 1 213.2293 360)">
		</image>
		
			<image style="overflow:visible;" width="72" height="72" xlink:href="002-subtle-light-pattern.jpg"  transform="matrix(1 0 0 1 284.3057 360)">
		</image>
		
			<image style="overflow:visible;" width="72" height="72" xlink:href="002-subtle-light-pattern.jpg"  transform="matrix(1 0 0 1 355.3821 360)">
		</image>
		
			<image style="overflow:visible;" width="72" height="72" xlink:href="002-subtle-light-pattern.jpg"  transform="matrix(1 0 0 1 426.4585 360)">
		</image>
		
			<image style="overflow:visible;" width="72" height="72" xlink:href="002-subtle-light-pattern.jpg"  transform="matrix(1 0 0 1 497.5349 360)">
		</image>
	</g>
	<g style="opacity:0.6;clip-path:url(#SVGID_00000119822125991372993670000006917432259764913050_);">
		
			<image style="overflow:visible;" width="72" height="72" xlink:href="002-subtle-light-pattern.jpg"  transform="matrix(1 0 0 1 0 432)">
		</image>
		
			<image style="overflow:visible;" width="72" height="72" xlink:href="002-subtle-light-pattern.jpg"  transform="matrix(1 0 0 1 71.0764 432)">
		</image>
		
			<image style="overflow:visible;" width="72" height="72" xlink:href="002-subtle-light-pattern.jpg"  transform="matrix(1 0 0 1 142.1528 432)">
		</image>
		
			<image style="overflow:visible;" width="72" height="72" xlink:href="002-subtle-light-pattern.jpg"  transform="matrix(1 0 0 1 213.2293 432)">
		</image>
		
			<image style="overflow:visible;" width="72" height="72" xlink:href="002-subtle-light-pattern.jpg"  transform="matrix(1 0 0 1 284.3057 432)">
		</image>
		
			<image style="overflow:visible;" width="72" height="72" xlink:href="002-subtle-light-pattern.jpg"  transform="matrix(1 0 0 1 355.3821 432)">
		</image>
		
			<image style="overflow:visible;" width="72" height="72" xlink:href="002-subtle-light-pattern.jpg"  transform="matrix(1 0 0 1 426.4585 432)">
		</image>
		
			<image style="overflow:visible;" width="72" height="72" xlink:href="002-subtle-light-pattern.jpg"  transform="matrix(1 0 0 1 497.5349 432)">
		</image>
	</g>
	<g style="opacity:0.6;clip-path:url(#SVGID_00000119822125991372993670000006917432259764913050_);">
		
			<image style="overflow:visible;" width="72" height="72" xlink:href="002-subtle-light-pattern.jpg"  transform="matrix(1 0 0 1 0 504)">
		</image>
		
			<image style="overflow:visible;" width="72" height="72" xlink:href="002-subtle-light-pattern.jpg"  transform="matrix(1 0 0 1 71.0764 504)">
		</image>
		
			<image style="overflow:visible;" width="72" height="72" xlink:href="002-subtle-light-pattern.jpg"  transform="matrix(1 0 0 1 142.1528 504)">
		</image>
		
			<image style="overflow:visible;" width="72" height="72" xlink:href="002-subtle-light-pattern.jpg"  transform="matrix(1 0 0 1 213.2293 504)">
		</image>
		
			<image style="overflow:visible;" width="72" height="72" xlink:href="002-subtle-light-pattern.jpg"  transform="matrix(1 0 0 1 284.3057 504)">
		</image>
		
			<image style="overflow:visible;" width="72" height="72" xlink:href="002-subtle-light-pattern.jpg"  transform="matrix(1 0 0 1 355.3821 504)">
		</image>
		
			<image style="overflow:visible;" width="72" height="72" xlink:href="002-subtle-light-pattern.jpg"  transform="matrix(1 0 0 1 426.4585 504)">
		</image>
		
			<image style="overflow:visible;" width="72" height="72" xlink:href="002-subtle-light-pattern.jpg"  transform="matrix(1 0 0 1 497.5349 504)">
		</image>
	</g>
	<g style="opacity:0.6;clip-path:url(#SVGID_00000119822125991372993670000006917432259764913050_);">
		
			<image style="overflow:visible;" width="72" height="72" xlink:href="002-subtle-light-pattern.jpg"  transform="matrix(1 0 0 1 0 576)">
		</image>
		
			<image style="overflow:visible;" width="72" height="72" xlink:href="002-subtle-light-pattern.jpg"  transform="matrix(1 0 0 1 71.0764 576)">
		</image>
		
			<image style="overflow:visible;" width="72" height="72" xlink:href="002-subtle-light-pattern.jpg"  transform="matrix(1 0 0 1 142.1528 576)">
		</image>
		
			<image style="overflow:visible;" width="72" height="72" xlink:href="002-subtle-light-pattern.jpg"  transform="matrix(1 0 0 1 213.2293 576)">
		</image>
		
			<image style="overflow:visible;" width="72" height="72" xlink:href="002-subtle-light-pattern.jpg"  transform="matrix(1 0 0 1 284.3057 576)">
		</image>
		
			<image style="overflow:visible;" width="72" height="72" xlink:href="002-subtle-light-pattern.jpg"  transform="matrix(1 0 0 1 355.3821 576)">
		</image>
		
			<image style="overflow:visible;" width="72" height="72" xlink:href="002-subtle-light-pattern.jpg"  transform="matrix(1 0 0 1 426.4585 576)">
		</image>
		
			<image style="overflow:visible;" width="72" height="72" xlink:href="002-subtle-light-pattern.jpg"  transform="matrix(1 0 0 1 497.5349 576)">
		</image>
	</g>
	<g style="opacity:0.6;clip-path:url(#SVGID_00000119822125991372993670000006917432259764913050_);">
		
			<image style="overflow:visible;" width="72" height="72" xlink:href="002-subtle-light-pattern.jpg"  transform="matrix(1 0 0 1 0 648)">
		</image>
		
			<image style="overflow:visible;" width="72" height="72" xlink:href="002-subtle-light-pattern.jpg"  transform="matrix(1 0 0 1 71.0764 648)">
		</image>
		
			<image style="overflow:visible;" width="72" height="72" xlink:href="002-subtle-light-pattern.jpg"  transform="matrix(1 0 0 1 142.1528 648)">
		</image>
		
			<image style="overflow:visible;" width="72" height="72" xlink:href="002-subtle-light-pattern.jpg"  transform="matrix(1 0 0 1 213.2293 648)">
		</image>
		
			<image style="overflow:visible;" width="72" height="72" xlink:href="002-subtle-light-pattern.jpg"  transform="matrix(1 0 0 1 284.3057 648)">
		</image>
		
			<image style="overflow:visible;" width="72" height="72" xlink:href="002-subtle-light-pattern.jpg"  transform="matrix(1 0 0 1 355.3821 648)">
		</image>
		
			<image style="overflow:visible;" width="72" height="72" xlink:href="002-subtle-light-pattern.jpg"  transform="matrix(1 0 0 1 426.4585 648)">
		</image>
		
			<image style="overflow:visible;" width="72" height="72" xlink:href="002-subtle-light-pattern.jpg"  transform="matrix(1 0 0 1 497.5349 648)">
		</image>
	</g>
	<g style="opacity:0.6;clip-path:url(#SVGID_00000119822125991372993670000006917432259764913050_);">
		
			<image style="overflow:visible;" width="72" height="72" xlink:href="002-subtle-light-pattern.jpg"  transform="matrix(1 0 0 1 0 720)">
		</image>
		
			<image style="overflow:visible;" width="72" height="72" xlink:href="002-subtle-light-pattern.jpg"  transform="matrix(1 0 0 1 71.0764 720)">
		</image>
		
			<image style="overflow:visible;" width="72" height="72" xlink:href="002-subtle-light-pattern.jpg"  transform="matrix(1 0 0 1 142.1528 720)">
		</image>
		
			<image style="overflow:visible;" width="72" height="72" xlink:href="002-subtle-light-pattern.jpg"  transform="matrix(1 0 0 1 213.2293 720)">
		</image>
		
			<image style="overflow:visible;" width="72" height="72" xlink:href="002-subtle-light-pattern.jpg"  transform="matrix(1 0 0 1 284.3057 720)">
		</image>
		
			<image style="overflow:visible;" width="72" height="72" xlink:href="002-subtle-light-pattern.jpg"  transform="matrix(1 0 0 1 355.3821 720)">
		</image>
		
			<image style="overflow:visible;" width="72" height="72" xlink:href="002-subtle-light-pattern.jpg"  transform="matrix(1 0 0 1 426.4585 720)">
		</image>
		
			<image style="overflow:visible;" width="72" height="72" xlink:href="002-subtle-light-pattern.jpg"  transform="matrix(1 0 0 1 497.5349 720)">
		</image>
	</g>
	<g style="opacity:0.6;clip-path:url(#SVGID_00000119822125991372993670000006917432259764913050_);">
		
			<image style="overflow:visible;" width="72" height="72" xlink:href="002-subtle-light-pattern.jpg"  transform="matrix(1 0 0 1 0 792)">
		</image>
		
			<image style="overflow:visible;" width="72" height="72" xlink:href="002-subtle-light-pattern.jpg"  transform="matrix(1 0 0 1 71.0764 792)">
		</image>
		
			<image style="overflow:visible;" width="72" height="72" xlink:href="002-subtle-light-pattern.jpg"  transform="matrix(1 0 0 1 142.1528 792)">
		</image>
		
			<image style="overflow:visible;" width="72" height="72" xlink:href="002-subtle-light-pattern.jpg"  transform="matrix(1 0 0 1 213.2293 792)">
		</image>
		
			<image style="overflow:visible;" width="72" height="72" xlink:href="002-subtle-light-pattern.jpg"  transform="matrix(1 0 0 1 284.3057 792)">
		</image>
		
			<image style="overflow:visible;" width="72" height="72" xlink:href="002-subtle-light-pattern.jpg"  transform="matrix(1 0 0 1 355.3821 792)">
		</image>
		
			<image style="overflow:visible;" width="72" height="72" xlink:href="002-subtle-light-pattern.jpg"  transform="matrix(1 0 0 1 426.4585 792)">
		</image>
		
			<image style="overflow:visible;" width="72" height="72" xlink:href="002-subtle-light-pattern.jpg"  transform="matrix(1 0 0 1 497.5349 792)">
		</image>
	</g>
</g>
<g class="st1">
	<path class="st2" d="M119.3,42.4c0.1-1.4,0.1-1.4-2.5-7c-2-4.4-2.4-5.2-2.9-5.8c-0.8-1.1-0.9-1.2-1.8-1.2c-1-0.1-2.2,0.3-5.4,1.6
		c-3,1.2-25.9,11.5-27.2,12.2c-1.3,0.7-1.6,1-1.9,1.8c-0.3,0.9-0.3,1.3,0,2.2c0.3,0.9,2.8,6.3,3.6,7.6c0.3,0.5,0.9,1.6,1.4,2.5
		c0.8,1.5,0.9,1.7,1.4,2.1c0.5,0.4,0.6,0.4,1.3,0.4c0.7,0,0.8,0,2.5-0.6c1.9-0.7,4.2-1.8,7.7-3.6c1.3-0.7,6.3-3,11.6-5.4
		c7.8-3.5,9.5-4.3,10.4-4.9C118.9,43.6,119.3,43.2,119.3,42.4z M92.4,55.2c-0.7,0.5-6.9,3-7.2,3c-0.7,0-0.8-0.2-2.1-2.6
		c-1.6-3.1-4.6-9.6-4.7-10.2c-0.1-0.6,0.1-1.2,0.5-1.5c0.5-0.4,2.3-1.4,5-2.6l2.3-1l1.7,3.7c0.9,2.1,2.4,5.3,3.3,7.3l1.7,3.6
		L92.4,55.2z M117.2,43.6c-0.9,0.6-1.4,0.9-4.7,2.4c-2,0.9-3.7,1.6-3.7,1.6c-0.2-0.1-3.1-6.5-3.8-8.3c-0.4-1.1-1.1-2.9-1.6-4.1
		l-0.9-2.1l1.3-0.6c0.7-0.3,2.3-1,3.6-1.5c2.7-1.1,4.7-1.7,5.1-1.6c0.2,0,0.8,0.9,1.3,1.9c0.7,1.3,4.8,10.4,4.8,10.8
		C118.6,42.6,118.3,42.9,117.2,43.6z"/>
</g>
<g class="st1">
	<path class="st2" d="M423.8,737c-2.3-6.8-2.3-6.7-4.4-13.1c-1.9-5.9-2.3-7-3.1-8.1c-1.1-1.5-2.5-1.9-4.3-1.5l-0.9,0.2l-1-3.1
		c-0.9-2.7-1.1-3.2-1.4-3.6c-0.5-0.7-0.8-0.8-1.7-0.6l-0.8,0.1l-0.5-0.8c-0.3-0.5-1-1.6-1.6-2.5c-0.6-1-1.7-2.5-2.3-3.5
		c-2.6-3.9-3-4.4-3.7-4.9c-0.5-0.3-0.9-0.2-1.2,0.3c-0.4,0.9-0.4,1.9,0,6c0.3,3.6,0.6,6.7,0.8,7.7c0.1,0.4,0,0.4-0.4,0.6
		c-1,0.5-1.2,1.2-0.8,2.9c0.3,1.2,1.7,5.3,1.9,5.6c0.1,0.1,0,0.2-0.5,0.4c-0.8,0.4-1.5,0.9-2,1.4c-0.9,0.9-0.8,2,0.8,7.2
		c1,3.5,4.9,14.7,6.4,18.5c1.9,4.8,2.6,5.7,4.7,6.1c0.4,0.1,3.1-0.6,4.9-1.2c1.6-0.5,8.5-3,10.7-3.9c1.5-0.6,1.8-0.7,2.1-1
		c0.5-0.5,0.7-1.2,0.7-1.8C425.9,743.2,425.6,742.2,423.8,737z M398,704.6c-0.1-1.1-0.2-3.1-0.3-4.5c-0.2-2.3-0.2-3.9,0-4
		c0,0,0.3,0.2,0.5,0.5c0.2,0.3,1.3,1.8,2.3,3.4c1,1.6,2.2,3.5,2.7,4.2c1.4,2.2,2.1,3.3,2.1,3.4c0,0-1.5,0.5-3.3,1.1l-3.3,1.1
		l-0.1-0.4C398.3,708.7,398.1,706.5,398,704.6z M397.7,728.7l-0.7-2.3c-0.7-2.2-1-3.5-1-4.5c0-0.7,0.9-1.4,2.8-2.2
		c0.7-0.3,4.2-1.5,7.8-2.7c5.9-2,6.6-2.2,7-2.2c0.2,0,0.6,0.2,0.9,0.3c1,0.4,1.5,1.4,2.8,4.7l0.7,1.9l-10.1,3.5L397.7,728.7z
		 M424.6,745.7l-0.2,0.4l-6.5,2.3c-7.6,2.8-9.2,3.2-10.3,3.1c-1.1-0.2-1.9-0.9-2.7-2.5c-0.6-1.2-1.5-3.8-1.4-3.7
		c0.1,0,4.6-1.5,10-3.3c7.6-2.5,9.9-3.3,10-3.2c0.3,0.2,1.1,3.2,1.4,5C425.1,744.7,425,745,424.6,745.7z"/>
</g>
<g class="st1">
	<path class="st2" d="M445,278c-0.7-0.7-2.2-2.6-3.5-4.4c-3.1-4.4-6.2-11.2-7.2-15.6c-0.3-1.3-0.4-1.5-0.7-1.6c-0.1,0-1.6,0.6-4.6,2
		c-4.6,2.2-4.7,2.2-8.8,4.4c-2.2,1.2-2.6,1.4-2.7,1.6c-0.2,0.4,0,0.8,0.7,1.5c0.9,0.9,2.1,2.5,3.2,4.3c0.6,1,1.5,2.3,1.9,2.9
		c0.9,1.2,2.7,4.9,3.5,6.9c0.5,1.2,1.5,4.4,2,6c0.2,0.9,0.4,1.1,0.8,0.9c0.2,0,3.8-1.8,8-4l7.7-3.9l0.1-0.3l0.1-0.3L445,278z
		 M437.8,281.6c-0.7,0.3-1.7,0.9-2.4,1.3c-0.9,0.5-1.2,0.6-1.2,0.5c0-0.1-0.9-1.9-2.1-4.1c-4.1-7.6-4.4-8.4-5.4-10.5
		c-0.5-1.2-1-2.2-1-2.3c0-0.1,0.6-0.4,2.5-1.3c1.4-0.7,2.5-1.2,2.6-1.2c0.3,0.1,2.1,3.9,3.8,7.9c1,2.3,2.4,5.2,3,6.6l1.2,2.5
		L437.8,281.6z"/>
	<path class="st2" d="M430.3,271.6c-0.4,0.5-0.5,1-0.4,1.5c0.2,0.8,0.9,1.3,1.8,1.2c0.6-0.1,1.1-0.4,1.3-1.1
		c0.4-1.1,0.1-1.8-0.9-2.2C431.4,270.7,430.9,270.9,430.3,271.6z M432,271.9c0.4,0.2,0.5,0.6,0.2,1c-0.3,0.5-0.5,0.5-0.9,0.4
		c-0.5-0.2-0.6-0.5-0.4-1C431.2,271.8,431.6,271.7,432,271.9z"/>
</g>
<g class="st1">
	<path class="st2" d="M58.9,664.6c-2.7-0.5-4.9-0.2-7.4,1c-1.8,0.8-3.1,1.9-4.3,3.2l-0.4,0.5l-1.4-0.4c-0.8-0.2-1.5-0.4-1.7-0.5
		c-0.2,0-0.4,0.1-0.6,0.3c-0.3,0.3-0.4,0.4-0.7,1.3c-0.4,1.2-0.4,1.5,0,1.9c0.2,0.2,0.5,0.3,0.7,0.4c0.4,0.2,1.6,0.8,1.7,0.9
		c0,0-0.1,0.5-0.2,1c-0.4,1.7-0.3,3.8,0.2,5.5c0.2,0.7,0.2,0.8,0,0.8c-0.1,0-0.8,0.3-1.5,0.6c-0.7,0.3-1.7,0.7-2.1,0.9
		c-1,0.4-1.1,0.4-1.7,1c-0.4,0.4-0.5,0.5-0.7,1.1c-0.3,1.1,0.1,1.7,1.1,1.9c0.8,0.1,1.9-0.2,4.4-1.3l2.3-1l0.6,0.8
		c1.8,2.2,4.6,3.9,7.3,4.4c2.7,0.5,5,0.2,7.6-0.9c2.4-1.1,4.2-2.7,5.5-5c0.3-0.4,0.5-0.8,0.6-0.8c0.3-0.1,2.8,0.8,5.3,1.9l2.7,1.2
		l-0.2,1.2c-1.1,5.3,1.1,10.4,5.7,13.3c0.9,0.6,2.9,1.3,4,1.6c1.2,0.2,2.5,0.3,3.5,0.2c0.4,0,0.8-0.1,0.9,0c0,0,0.3,0.5,0.6,1.1
		c0.9,1.9,1.8,2.9,2.7,2.9c0.6,0,0.9-0.3,1.2-1c0.2-0.6,0.3-0.7,0.2-1.2c-0.1-0.9-0.1-0.8-1.2-2.8c0-0.1,0.2-0.2,0.6-0.4
		c1.4-0.7,3-2.1,3.9-3.5c0.6-0.8,1.5-2.6,1.6-2.9c0-0.1,0.1-0.2,0.2-0.2c0.1,0,0.7,0,1.4,0.2c0.8,0.1,1.3,0.2,1.4,0.1
		c0.4-0.3,0.7-1,0.9-2.1l0.2-1.1l-0.3-0.3c-0.2-0.2-0.5-0.4-0.8-0.6c-0.3-0.2-0.9-0.5-1.3-0.8l-0.8-0.5l-0.1-0.8
		c-0.2-2.3-1.3-4.6-3-6.4c-1.4-1.5-3.1-2.7-4.8-3.5c-3-1.3-6.3-1.2-9.4,0.1l-1,0.5l-0.4-0.7c-1.2-2.2-2.3-3.1-4.6-4
		c-1.3-0.5-1.5-0.6-2.5-0.7c-2-0.2-4-0.1-5.3,0.5l-0.5,0.2l-0.1-0.3c-0.2-0.6-1-2.3-1.5-3c-0.9-1.4-2.5-2.9-4.2-4
		C61.9,665.6,59.9,664.7,58.9,664.6z M56.9,664.9c-0.3,0.1-0.4,0.1-0.4-0.1c0-0.1,0.2-0.2,0.4-0.1C57.2,664.8,57.2,664.8,56.9,664.9
		z M55.9,664.9c0,0-0.5,0.1-1.1,0.2c-1.7,0.2-3.5,0.9-4.3,1.5c-0.3,0.2-0.4,0.3-0.4,0.2c0.1-0.3,0.6-0.6,1.6-1
		c1.4-0.6,1.9-0.7,3-0.9C55.6,664.8,56,664.8,55.9,664.9z M62.6,668c2.4,1.5,4.1,4.5,4.5,7.9c0.1,0.7,0.1,2.1,0,2.2
		c-0.1,0-6.5-2.5-8.1-3.2c-0.8-0.3-2.3-1-3.4-1.4c-1.1-0.4-2.6-1-3.3-1.4c-0.7-0.3-1.8-0.9-2.5-1.1l-1.2-0.5l0.1-0.2
		c0.1-0.3,1.3-1.4,1.9-1.9c0.7-0.5,2.1-1.2,3.1-1.5c1.4-0.4,3.5-0.6,4.9-0.3C59.8,666.7,61.7,667.4,62.6,668z M93.8,680.3
		c1.8,1.1,3.3,3.2,4,5.5c0.3,0.9,0.6,2.4,0.5,2.4c0,0-0.9-0.2-1.9-0.5c-4-1.2-4.9-1.5-5-1.4c-0.1,0-1.3-0.4-2.7-0.8
		c-1.4-0.5-3.3-1.1-4.1-1.3c-0.8-0.2-2.2-0.7-3.1-1l-1.6-0.5l0.3-0.3c0.4-0.6,1.6-1.5,2.2-2c0.8-0.5,2.2-1.1,3-1.3
		c1.4-0.3,3.1-0.4,4.4-0.2C91,679,92.9,679.7,93.8,680.3z M85.7,677.4c-0.1,0-0.5,0.1-1,0.3c-0.5,0.1-1.2,0.3-1.6,0.5
		c-0.8,0.3-1,0.2-0.2-0.1c0.6-0.3,2.6-0.8,2.8-0.7C85.7,677.3,85.7,677.4,85.7,677.4z M72.1,673.2c0,0-0.3,0.1-0.6,0.2
		c-0.3,0-0.8,0.1-1,0.2c-0.5,0.1-0.6,0-0.3-0.1c0.2-0.1,1.8-0.3,1.9-0.3C72.1,673.1,72.1,673.2,72.1,673.2z M77.3,676.2
		c1,0.5,1.8,1.4,2.6,2.8l0.2,0.4l-0.7,0.7c-0.4,0.4-0.9,1-1.2,1.3l-0.4,0.5l-3-0.9c-2.4-0.7-3.3-1-4.4-1.5l-1.4-0.6l0.1-1
		c0-0.6,0.1-1.3,0.1-1.6l0-0.6l0.3-0.1c0.1-0.1,0.7-0.2,1.2-0.3c2.1-0.5,3.4-0.5,5,0.1C76,675.6,76.9,676,77.3,676.2z M55.2,673.9
		c0.2,0.1,0.4,0.2,0.3,0.3c-0.1,0.1-6.9-2.5-6.9-2.6C48.7,671.4,54.6,673.5,55.2,673.9z M62.2,677.1c-0.1,0-0.3-0.1-0.4-0.1
		c-0.1-0.1,0-0.1,0.2,0C62.2,677.1,62.3,677.1,62.2,677.1z M60.2,676.6c-1.7-0.4-2-0.4-3.1-0.3c-0.5,0-0.9,0-0.9,0
		c0,0,0.1-0.1,0.1,0c0.1,0,0.4,0,0.7-0.1c0.8-0.2,1.2-0.1,2.6,0.2C61.4,676.8,61.7,677,60.2,676.6z M85.9,686.9
		C85.9,687,85.9,687,85.9,686.9c-0.1,0.1-0.3,0-0.4-0.1l-0.2-0.3l0.3,0.2C85.8,686.8,85.9,686.9,85.9,686.9z M50.5,674.7
		c1,0.4,2.4,1,3.3,1.3l1.5,0.6l-0.6,0.2c-0.3,0.1-1.1,0.4-1.8,0.7c-0.6,0.3-1.5,0.6-1.9,0.7c-1.1,0.3-1.9,0.6-3,1.1
		c-0.5,0.2-1,0.4-1,0.4c-0.1,0-0.3-1.2-0.4-1.9c-0.1-1,0-2.3,0.2-3.3c0.1-0.5,0.3-1,0.3-1C47.2,673.4,47.9,673.6,50.5,674.7z
		 M96.3,691.3c0.7,0.3,1.2,0.5,1.4,0.5l0.3,0l-0.5,1.1c-0.9,2.2-2.6,4.2-4.7,5.3l-0.5,0.3l-0.7-1c-0.4-0.6-1-1.6-1.4-2.4
		c-0.8-1.5-1.2-2.3-1.9-3.2c-0.2-0.4-0.7-1.2-1-1.8c-0.3-0.6-0.7-1.4-0.9-1.7l-0.3-0.6l1.6,0.5c0.9,0.3,2.2,0.7,3,0.9
		C92.4,689.8,94.3,690.5,96.3,691.3z M66,681.6c-0.1,0.4-1.2,1.8-1.9,2.5c-2.3,2.3-5.2,3.3-8.5,3c-0.7-0.1-1.1-0.2-2.4-0.6
		c-1.3-0.5-1.7-0.6-2.3-1.1c-0.8-0.5-1.8-1.5-2.3-2.2l-0.3-0.4l0.6-0.3c0.3-0.2,1.3-0.6,2.2-1c0.9-0.4,2.2-0.9,2.9-1.2
		c1.3-0.6,2.4-0.9,3-1c0.4-0.1,3.3,0.5,5.1,1c0.8,0.2,1.4,0.4,1.5,0.4c0.1,0,0.7,0.2,1.3,0.4C65.8,681.4,66.1,681.5,66,681.6z
		 M79.4,686.5c1.2,0.5,3.8,1.9,4,2.2c0.4,0.4,1,1.4,1.6,2.7c0.3,0.7,0.9,1.8,1.3,2.5c0.7,1.3,2.6,5.4,2.5,5.4c-0.2,0-1.5,0-2.2,0
		c-1.1-0.1-3.5-1-4.5-1.7c-1.8-1.2-3.3-3.2-4-5.4c-0.6-1.8-0.7-3.7-0.3-5.3c0.2-1.1,0.2-1.1,0.5-1C78.5,686.2,79,686.4,79.4,686.5z"
		/>
	<path class="st2" d="M53.9,667.6c-0.9,0.2-2.6,1-3.2,1.5c-0.6,0.5-0.7,0.7-0.6,0.7c0,0,0.3-0.2,0.7-0.5c0.7-0.6,2.2-1.3,3.2-1.6
		c0.7-0.2,0.9-0.3,0.8-0.3C54.7,667.5,54.3,667.5,53.9,667.6z"/>
	<path class="st2" d="M85.6,679.8c-1.3,0.3-4,1.6-4.1,2c-0.1,0.3,0,0.3,0.2,0c0.5-0.6,3.2-1.8,4.5-2c0.3-0.1,0.5-0.2,0.3-0.2
		C86.5,679.6,86,679.7,85.6,679.8z"/>
	<path class="st2" d="M95.7,693.2c-0.5,0.8-2,2.6-2.5,3.1c-0.2,0.2-0.4,0.4-0.4,0.5c0,0,0.2-0.1,0.4-0.2c0.5-0.3,1.4-1.3,2.3-2.6
		c0.7-1,0.8-1.1,0.6-1.2C96.1,692.7,95.9,692.9,95.7,693.2z"/>
	<path class="st2" d="M93.5,694.7c-0.1,0.1-0.2,0.3-0.3,0.4c-0.3,0.2-0.4,0.4-0.1,0.3c0.3-0.1,0.7-0.5,0.6-0.7
		C93.8,694.4,93.6,694.4,93.5,694.7z"/>
	<path class="st2" d="M63.5,682.9c-0.1,0.2-2.2,1.4-3.7,1.9c-1.5,0.6-2.6,0.7-4,0.6c-1.8-0.2-1.7,0,0.1,0.2c1.6,0.2,2.8-0.1,4.7-0.9
		c1.6-0.7,2.9-1.5,3-1.7c0-0.1,0-0.2,0-0.3C63.6,682.7,63.5,682.8,63.5,682.9z"/>
	<path class="st2" d="M52.7,684.3c0,0,0.2,0.2,0.5,0.3s0.5,0.1,0.5,0.1c0-0.1-0.2-0.2-0.5-0.3C52.9,684.3,52.7,684.3,52.7,684.3z"/>
	<path class="st2" d="M83.6,697.2c0,0.2,1.1,0.8,2.2,1.1c0.6,0.2,0.3-0.1-0.5-0.4c-0.4-0.2-1-0.5-1.3-0.6
		C83.7,697.1,83.6,697,83.6,697.2z"/>
</g>
<g class="st1">
	<path class="st2" d="M422.3,45.7c-2.7-0.5-4.9-0.2-7.4,1c-1.8,0.8-3.1,1.9-4.3,3.2l-0.4,0.5l-1.4-0.4c-0.8-0.2-1.5-0.4-1.7-0.5
		c-0.2,0-0.4,0.1-0.6,0.3c-0.3,0.3-0.4,0.4-0.7,1.3c-0.4,1.2-0.4,1.5,0,1.9c0.2,0.2,0.5,0.3,0.7,0.4c0.4,0.2,1.6,0.8,1.7,0.9
		c0,0-0.1,0.5-0.2,1c-0.4,1.7-0.3,3.8,0.2,5.5c0.2,0.7,0.2,0.8,0,0.8c-0.1,0-0.8,0.3-1.5,0.6c-0.7,0.3-1.7,0.7-2.1,0.9
		c-1,0.4-1.1,0.4-1.7,1c-0.4,0.4-0.5,0.5-0.7,1.1c-0.3,1.1,0.1,1.7,1.1,1.9c0.8,0.1,1.9-0.2,4.4-1.3l2.3-1l0.6,0.8
		c1.8,2.2,4.6,3.9,7.3,4.4c2.7,0.5,5,0.2,7.6-0.9c2.4-1.1,4.2-2.7,5.5-5c0.3-0.4,0.5-0.8,0.6-0.8c0.3-0.1,2.8,0.8,5.3,1.9l2.7,1.2
		l-0.2,1.2c-1.1,5.3,1.1,10.4,5.7,13.3c0.9,0.6,2.9,1.3,4,1.6c1.2,0.2,2.5,0.3,3.5,0.2c0.4,0,0.8-0.1,0.9,0c0,0,0.3,0.5,0.6,1.1
		c0.9,1.9,1.8,2.9,2.7,2.9c0.6,0,0.9-0.3,1.2-1c0.2-0.6,0.3-0.7,0.2-1.2c-0.1-0.9-0.1-0.8-1.2-2.8c0-0.1,0.2-0.2,0.6-0.4
		c1.4-0.7,3-2.1,3.9-3.5c0.6-0.8,1.5-2.6,1.6-2.9c0-0.1,0.1-0.2,0.2-0.2c0.1,0,0.7,0,1.4,0.2c0.8,0.1,1.3,0.2,1.4,0.1
		c0.4-0.3,0.7-1,0.9-2.1l0.2-1.1l-0.3-0.3c-0.2-0.2-0.5-0.4-0.8-0.6c-0.3-0.2-0.9-0.5-1.3-0.8l-0.8-0.5l-0.1-0.8
		c-0.2-2.3-1.3-4.6-3-6.4c-1.4-1.5-3.1-2.7-4.8-3.5c-3-1.3-6.3-1.2-9.4,0.1l-1,0.5l-0.4-0.7c-1.2-2.2-2.3-3.1-4.6-4
		c-1.3-0.5-1.5-0.6-2.5-0.7c-2-0.2-4-0.1-5.3,0.5l-0.5,0.2l-0.1-0.3c-0.2-0.6-1-2.3-1.5-3c-0.9-1.4-2.5-2.9-4.2-4
		C425.4,46.7,423.3,45.9,422.3,45.7z M420.4,46c-0.3,0.1-0.4,0.1-0.4-0.1c0-0.1,0.2-0.2,0.4-0.1C420.6,46,420.6,46,420.4,46z
		 M419.4,46.1c0,0-0.5,0.1-1.1,0.2c-1.7,0.2-3.5,0.9-4.3,1.5c-0.3,0.2-0.4,0.3-0.4,0.2c0.1-0.3,0.6-0.6,1.6-1c1.4-0.6,1.9-0.7,3-0.9
		C419.1,46,419.4,46,419.4,46.1z M426.1,49.1c2.4,1.5,4.1,4.5,4.5,7.9c0.1,0.7,0.1,2.1,0,2.2c-0.1,0-6.5-2.5-8.1-3.2
		c-0.8-0.3-2.3-1-3.4-1.4c-1.1-0.4-2.6-1-3.3-1.4c-0.7-0.3-1.8-0.9-2.5-1.1l-1.2-0.5l0.1-0.2c0.1-0.3,1.3-1.4,1.9-1.9
		c0.7-0.5,2.1-1.2,3.1-1.5c1.4-0.4,3.5-0.6,4.9-0.3C423.3,47.8,425.1,48.5,426.1,49.1z M457.3,61.4c1.8,1.1,3.3,3.2,4,5.5
		c0.3,0.9,0.6,2.4,0.5,2.4c0,0-0.9-0.2-1.9-0.5c-4-1.2-4.9-1.5-5-1.4c-0.1,0-1.3-0.4-2.7-0.8c-1.4-0.5-3.3-1.1-4.1-1.3
		c-0.8-0.2-2.2-0.7-3.1-1l-1.6-0.5l0.3-0.3c0.4-0.6,1.6-1.5,2.2-2c0.8-0.5,2.2-1.1,3-1.3c1.4-0.3,3.1-0.4,4.4-0.2
		C454.5,60.1,456.3,60.8,457.3,61.4z M449.1,58.6c-0.1,0-0.5,0.1-1,0.3c-0.5,0.1-1.2,0.3-1.6,0.5c-0.8,0.3-1,0.2-0.2-0.1
		c0.6-0.3,2.6-0.8,2.8-0.7C449.2,58.5,449.2,58.5,449.1,58.6z M435.5,54.4c0,0-0.3,0.1-0.6,0.2c-0.3,0-0.8,0.1-1,0.2
		c-0.5,0.1-0.6,0-0.3-0.1c0.2-0.1,1.8-0.3,1.9-0.3C435.5,54.3,435.5,54.3,435.5,54.4z M440.7,57.3c1,0.5,1.8,1.4,2.6,2.8l0.2,0.4
		l-0.7,0.7c-0.4,0.4-0.9,1-1.2,1.3l-0.4,0.5l-3-0.9c-2.4-0.7-3.3-1-4.4-1.5l-1.4-0.6l0.1-1c0-0.6,0.1-1.3,0.1-1.6l0-0.6l0.3-0.1
		c0.1-0.1,0.7-0.2,1.2-0.3c2.1-0.5,3.4-0.5,5,0.1C439.5,56.7,440.3,57.1,440.7,57.3z M418.7,55c0.2,0.1,0.4,0.2,0.3,0.3
		c-0.1,0.1-6.9-2.5-6.9-2.6C412.2,52.6,418,54.6,418.7,55z M425.7,58.3c-0.1,0-0.3-0.1-0.4-0.1c-0.1-0.1,0-0.1,0.2,0
		C425.7,58.2,425.8,58.3,425.7,58.3z M423.6,57.8c-1.7-0.4-2-0.4-3.1-0.3c-0.5,0-0.9,0-0.9,0c0,0,0.1-0.1,0.1,0s0.4,0,0.7-0.1
		c0.8-0.2,1.2-0.1,2.6,0.2C424.8,57.9,425.2,58.1,423.6,57.8z M449.4,68.1C449.4,68.1,449.3,68.1,449.4,68.1c-0.1,0.1-0.3,0-0.4-0.1
		l-0.2-0.3l0.3,0.2C449.2,68,449.4,68.1,449.4,68.1z M413.9,55.8c1,0.4,2.4,1,3.3,1.3l1.5,0.6l-0.6,0.2c-0.3,0.1-1.1,0.4-1.8,0.7
		c-0.6,0.3-1.5,0.6-1.9,0.7c-1.1,0.3-1.9,0.6-3,1.1c-0.5,0.2-1,0.4-1,0.4c-0.1,0-0.3-1.2-0.4-1.9c-0.1-1,0-2.3,0.2-3.3
		c0.1-0.5,0.3-1,0.3-1C410.6,54.5,411.3,54.7,413.9,55.8z M459.8,72.5c0.7,0.3,1.2,0.5,1.4,0.5l0.3,0l-0.5,1.1
		c-0.9,2.2-2.6,4.2-4.7,5.3l-0.5,0.3l-0.7-1c-0.4-0.6-1-1.6-1.4-2.4c-0.8-1.5-1.2-2.3-1.9-3.2c-0.2-0.4-0.7-1.2-1-1.8
		c-0.3-0.6-0.7-1.4-0.9-1.7l-0.3-0.6l1.6,0.5c0.9,0.3,2.2,0.7,3,0.9C455.9,70.9,457.7,71.6,459.8,72.5z M429.5,62.7
		c-0.1,0.4-1.2,1.8-1.9,2.5c-2.3,2.3-5.2,3.3-8.5,3c-0.7-0.1-1.1-0.2-2.4-0.6c-1.3-0.5-1.7-0.6-2.3-1.1c-0.8-0.5-1.8-1.5-2.3-2.2
		l-0.3-0.4l0.6-0.3c0.3-0.2,1.3-0.6,2.2-1c0.9-0.4,2.2-0.9,2.9-1.2c1.3-0.6,2.4-0.9,3-1c0.4-0.1,3.3,0.5,5.1,1
		c0.8,0.2,1.4,0.4,1.5,0.4c0.1,0,0.7,0.2,1.3,0.4C429.3,62.5,429.5,62.6,429.5,62.7z M442.9,67.7c1.2,0.5,3.8,1.9,4,2.2
		c0.4,0.4,1,1.4,1.6,2.7c0.3,0.7,0.9,1.8,1.3,2.5c0.7,1.3,2.6,5.4,2.5,5.4c-0.2,0-1.5,0-2.2,0c-1.1-0.1-3.5-1-4.5-1.7
		c-1.8-1.2-3.3-3.2-4-5.4c-0.6-1.8-0.7-3.7-0.3-5.3c0.2-1.1,0.2-1.1,0.5-1C442,67.3,442.4,67.5,442.9,67.7z"/>
	<path class="st2" d="M417.4,48.8c-0.9,0.2-2.6,1-3.2,1.5c-0.6,0.5-0.7,0.7-0.6,0.7c0,0,0.3-0.2,0.7-0.5c0.7-0.6,2.2-1.3,3.2-1.6
		c0.7-0.2,0.9-0.3,0.8-0.3C418.1,48.6,417.8,48.7,417.4,48.8z"/>
	<path class="st2" d="M449,60.9c-1.3,0.3-4,1.6-4.1,2c-0.1,0.3,0,0.3,0.2,0c0.5-0.6,3.2-1.8,4.5-2c0.3-0.1,0.5-0.2,0.3-0.2
		C449.9,60.7,449.5,60.8,449,60.9z"/>
	<path class="st2" d="M459.2,74.3c-0.5,0.8-2,2.6-2.5,3.1c-0.2,0.2-0.4,0.4-0.4,0.5c0,0,0.2-0.1,0.4-0.2c0.5-0.3,1.4-1.3,2.3-2.6
		c0.7-1,0.8-1.1,0.6-1.2C459.5,73.9,459.4,74,459.2,74.3z"/>
	<path class="st2" d="M457,75.8c-0.1,0.1-0.2,0.3-0.3,0.4c-0.3,0.2-0.4,0.4-0.1,0.3c0.3-0.1,0.7-0.5,0.6-0.7
		C457.2,75.5,457.1,75.6,457,75.8z"/>
	<path class="st2" d="M426.9,64c-0.1,0.2-2.2,1.4-3.7,1.9c-1.5,0.6-2.6,0.7-4,0.6c-1.8-0.2-1.7,0,0.1,0.2c1.6,0.2,2.8-0.1,4.7-0.9
		c1.6-0.7,2.9-1.5,3-1.7c0-0.1,0-0.2,0-0.3C427,63.9,427,63.9,426.9,64z"/>
	<path class="st2" d="M416.1,65.4c0,0,0.2,0.2,0.5,0.3c0.3,0.1,0.5,0.1,0.5,0.1c0-0.1-0.2-0.2-0.5-0.3
		C416.4,65.4,416.1,65.4,416.1,65.4z"/>
	<path class="st2" d="M447,78.3c0,0.2,1.1,0.8,2.2,1.1c0.6,0.2,0.3-0.1-0.5-0.4c-0.4-0.2-1-0.5-1.3-0.6
		C447.1,78.2,447,78.2,447,78.3z"/>
</g>
</svg>
